<?xml version="1.0" encoding="utf-8"?>
<!-- Generator: Adobe Illustrator 16.2.1, SVG Export Plug-In . SVG Version: 6.00 Build 0)  -->
<!DOCTYPE svg PUBLIC "-//W3C//DTD SVG 1.1//EN" "http://www.w3.org/Graphics/SVG/1.1/DTD/svg11.dtd">
<svg version="1.1" id="Capa_1" xmlns="http://www.w3.org/2000/svg" xmlns:xlink="http://www.w3.org/1999/xlink" x="0px" y="0px"
	 width="100px" height="100px" viewBox="0 0 100 100" enable-background="new 0 0 100 100" xml:space="preserve">
<path d="M298.251,437.874h15.497c-0.304,2.278-1.177,4.178-2.621,5.697c-1.443,1.519-3.152,2.277-5.127,2.277
	s-3.686-0.76-5.127-2.277C299.43,442.052,298.557,440.152,298.251,437.874z M294.491,434.798h23.017l1.025-8.433h-25.182
	L294.491,434.798z M337.903,377.826c0,8.279-2.812,15.458-8.433,21.535c-0.076,0.074-0.229,0.266-0.456,0.568
	c-0.38,0.607-0.76,1.254-1.14,1.938c-0.911,1.596-1.786,3.381-2.62,5.355c-0.836,1.976-1.558,3.949-2.166,5.926
	c-0.15,0.188-0.265,0.531-0.342,1.024c-0.074,0.494-0.151,0.816-0.229,0.968c-0.074,0.152-0.132,0.399-0.17,0.741
	c-0.039,0.342-0.058,0.513-0.058,0.513v0.172v2.963v3.646h-3.646h-2.963h-19.369h-2.963h-3.646v-3.646v-2.963l-0.057-0.398
	c-0.039-0.267-0.133-0.703-0.285-1.311c-0.152-0.609-0.305-1.179-0.457-1.711c-0.606-1.975-1.328-3.948-2.163-5.924
	c-0.837-1.824-1.786-3.685-2.849-5.584c-0.455-0.759-0.873-1.403-1.254-1.937c-0.076-0.152-0.188-0.343-0.341-0.57v-0.114
	c-5.469-6-8.204-13.063-8.204-21.193c0-8.734,3.133-16.198,9.4-22.389c6.267-6.191,13.768-9.287,22.503-9.287
	s16.237,3.097,22.504,9.287C334.771,361.627,337.903,369.09,337.903,377.826z M330.611,377.826c0-6.762-2.412-12.516-7.236-17.264
	c-4.822-4.748-10.615-7.121-17.375-7.121s-12.552,2.375-17.375,7.121c-4.824,4.748-7.236,10.502-7.236,17.264
	c0,6.229,2.09,11.66,6.268,16.293c0.304,0.38,0.722,0.912,1.253,1.595c0.38,0.685,0.798,1.443,1.253,2.279
	c1.215,2.127,2.279,4.215,3.191,6.267c0.986,2.202,1.86,4.444,2.619,6.724c0.607,2.127,0.95,3.761,1.025,4.898h18.003
	c0.077-1.139,0.417-2.771,1.025-4.898c0.685-2.278,1.519-4.521,2.507-6.724c0.986-2.203,1.975-4.216,2.963-6.039
	c0.455-0.759,0.949-1.52,1.48-2.279c0.455-0.758,0.836-1.291,1.141-1.594C328.447,389.714,330.611,384.207,330.611,377.826z
	 M311.811,386.6l-3.189-6.381L306,375.091l-2.621,5.127l-3.189,6.382l-3.19-6.382l-5.127,2.621l5.812,11.509l2.506,5.241
	l2.621-5.241l3.19-6.382l3.191,6.382l2.619,5.241l2.508-5.241l5.811-11.509l-5.127-2.621L311.811,386.6z"/>
</svg>
