<?xml version="1.0" encoding="utf-8"?>
<!-- Generator: Adobe Illustrator 16.2.1, SVG Export Plug-In . SVG Version: 6.00 Build 0)  -->
<!DOCTYPE svg PUBLIC "-//W3C//DTD SVG 1.1//EN" "http://www.w3.org/Graphics/SVG/1.1/DTD/svg11.dtd">
<svg version="1.1" id="Capa_1" xmlns="http://www.w3.org/2000/svg" xmlns:xlink="http://www.w3.org/1999/xlink" x="0px" y="0px"
	 width="100px" height="100px" viewBox="0 0 100 100" enable-background="new 0 0 100 100" xml:space="preserve">
<path fill="#FFFFFF" d="M42.252,91.875H57.75c-0.305,2.279-1.178,4.178-2.621,5.697s-3.152,2.277-5.127,2.277
	c-1.975,0-3.686-0.76-5.127-2.277C43.431,96.053,42.558,94.154,42.252,91.875z M38.493,88.799H61.51l1.025-8.432H37.353
	L38.493,88.799z M81.904,31.828c0,8.279-2.811,15.458-8.432,21.536c-0.076,0.074-0.229,0.266-0.457,0.568
	c-0.379,0.607-0.76,1.254-1.139,1.938c-0.912,1.596-1.787,3.381-2.621,5.355c-0.836,1.975-1.557,3.949-2.166,5.926
	c-0.15,0.188-0.264,0.531-0.342,1.023c-0.074,0.494-0.15,0.816-0.229,0.969c-0.074,0.152-0.131,0.398-0.17,0.74
	s-0.057,0.514-0.057,0.514v0.172v2.963v3.645h-3.646h-2.963h-19.37h-2.963h-3.646v-3.645v-2.963l-0.057-0.398
	c-0.039-0.268-0.133-0.703-0.285-1.311c-0.152-0.609-0.305-1.18-0.457-1.711c-0.606-1.975-1.328-3.949-2.163-5.924
	c-0.837-1.824-1.786-3.686-2.849-5.584c-0.455-0.76-0.873-1.404-1.254-1.938c-0.076-0.152-0.188-0.342-0.341-0.57V53.02
	c-5.469-6-8.204-13.064-8.204-21.194c0-8.734,3.133-16.198,9.4-22.389C33.762,3.246,41.263,0.15,49.999,0.15
	c8.736,0,16.238,3.097,22.503,9.287C78.773,15.628,81.904,23.091,81.904,31.828z M74.613,31.828c0-6.762-2.412-12.516-7.236-17.264
	c-4.822-4.748-10.615-7.121-17.375-7.121c-6.76,0-12.552,2.375-17.375,7.121c-4.824,4.748-7.236,10.502-7.236,17.264
	c0,6.229,2.09,11.66,6.268,16.293c0.304,0.38,0.722,0.912,1.253,1.595c0.38,0.685,0.798,1.443,1.253,2.279
	c1.215,2.127,2.279,4.215,3.191,6.268c0.986,2.201,1.86,4.443,2.619,6.723c0.607,2.127,0.95,3.762,1.025,4.898h18.002
	c0.078-1.139,0.418-2.771,1.025-4.898c0.686-2.277,1.52-4.521,2.508-6.723c0.986-2.203,1.975-4.217,2.963-6.039
	c0.455-0.76,0.949-1.52,1.48-2.28c0.455-0.758,0.836-1.291,1.141-1.594C72.449,43.715,74.613,38.208,74.613,31.828z M55.812,40.601
	l-3.189-6.381l-2.622-5.128l-2.621,5.127l-3.189,6.382L41,34.219l-5.127,2.621l5.812,11.509l2.506,5.241l2.621-5.241l3.19-6.382
	l3.191,6.382l2.619,5.241l2.508-5.241l5.811-11.509l-5.127-2.621L55.812,40.601z"/>
</svg>
