<?xml version="1.0" encoding="utf-8"?>
<!-- Generator: Adobe Illustrator 16.2.1, SVG Export Plug-In . SVG Version: 6.00 Build 0)  -->
<!DOCTYPE svg PUBLIC "-//W3C//DTD SVG 1.1//EN" "http://www.w3.org/Graphics/SVG/1.1/DTD/svg11.dtd">
<svg version="1.1" id="Capa_1" xmlns="http://www.w3.org/2000/svg" xmlns:xlink="http://www.w3.org/1999/xlink" x="0px" y="0px"
	 width="100px" height="100px" viewBox="256 346 100 100" enable-background="new 256 346 100 100" xml:space="preserve">
<path d="M298.251,437.874h15.497c-0.304,2.278-1.177,4.178-2.621,5.697c-1.443,1.519-3.152,2.278-5.127,2.278
	c-1.975,0-3.685-0.76-5.127-2.278C299.429,442.052,298.556,440.152,298.251,437.874z M294.491,434.798h23.017l1.025-8.433h-25.181
	L294.491,434.798z M337.903,377.826c0,8.28-2.811,15.458-8.432,21.535c-0.076,0.075-0.229,0.266-0.456,0.569
	c-0.38,0.607-0.76,1.254-1.14,1.937c-0.911,1.596-1.786,3.381-2.62,5.356c-0.836,1.975-1.558,3.949-2.166,5.925
	c-0.151,0.189-0.265,0.532-0.342,1.025c-0.074,0.494-0.151,0.816-0.228,0.968c-0.075,0.152-0.132,0.399-0.17,0.741
	c-0.039,0.342-0.058,0.513-0.058,0.513v0.171v2.963v3.646h-3.646h-2.963h-19.37h-2.963h-3.646v-3.646v-2.963l-0.057-0.398
	c-0.038-0.267-0.133-0.703-0.285-1.311c-0.152-0.609-0.304-1.178-0.456-1.71c-0.607-1.975-1.329-3.949-2.164-5.924
	c-0.836-1.824-1.786-3.685-2.849-5.584c-0.455-0.759-0.873-1.404-1.253-1.937c-0.076-0.152-0.189-0.343-0.341-0.57v-0.114
	c-5.469-6-8.204-13.064-8.204-21.193c0-8.735,3.133-16.199,9.4-22.39c6.267-6.191,13.768-9.286,22.503-9.286
	s16.237,3.096,22.504,9.286C334.771,361.627,337.903,369.09,337.903,377.826z M330.611,377.826c0-6.761-2.412-12.515-7.236-17.263
	c-4.822-4.748-10.615-7.121-17.375-7.121s-12.552,2.374-17.375,7.121c-4.824,4.748-7.236,10.502-7.236,17.263
	c0,6.229,2.089,11.66,6.267,16.293c0.304,0.38,0.722,0.912,1.253,1.595c0.38,0.684,0.798,1.443,1.253,2.279
	c1.215,2.127,2.279,4.215,3.191,6.267c0.987,2.202,1.861,4.444,2.62,6.723c0.607,2.127,0.95,3.761,1.025,4.899h18.003
	c0.077-1.139,0.417-2.772,1.025-4.899c0.685-2.278,1.519-4.521,2.507-6.723c0.987-2.203,1.975-4.216,2.963-6.039
	c0.455-0.759,0.949-1.52,1.481-2.279c0.455-0.759,0.836-1.291,1.14-1.595C328.447,389.714,330.611,384.207,330.611,377.826z
	 M311.811,386.6l-3.19-6.381L306,375.091l-2.621,5.127l-3.19,6.381l-3.19-6.381l-5.127,2.621l5.811,11.508l2.507,5.242l2.621-5.242
	l3.19-6.381l3.191,6.381l2.62,5.242l2.507-5.242l5.811-11.508l-5.127-2.621L311.811,386.6z"/>
</svg>
