<?xml version="1.0" encoding="utf-8"?>
<!-- Generator: Adobe Illustrator 16.2.1, SVG Export Plug-In . SVG Version: 6.00 Build 0)  -->
<!DOCTYPE svg PUBLIC "-//W3C//DTD SVG 1.1//EN" "http://www.w3.org/Graphics/SVG/1.1/DTD/svg11.dtd">
<svg version="1.1" id="Layer_1" xmlns="http://www.w3.org/2000/svg" xmlns:xlink="http://www.w3.org/1999/xlink" x="0px" y="0px"
	 width="100px" height="100px" viewBox="0 0 100 100" enable-background="new 0 0 100 100" xml:space="preserve">
<g>
	<polygon fill="#FFFFFF" points="29.333,24.047 29.704,22.6 28.625,22.343 27.432,22.909 28.169,24.417 	"/>
	<polygon fill="#FFFFFF" points="33.762,27.255 33.762,26.317 33.366,26.317 33.366,25.779 31.579,25.779 30.27,26.317 
		30.015,26.973 31.038,27.255 	"/>
	<polygon fill="#FFFFFF" points="34.246,26.175 34.246,27.255 35.184,27.028 	"/>
	<path fill="#FFFFFF" d="M94.514,40.301c-0.058-0.259-0.117-0.517-0.18-0.774l-0.145,0.167L94.514,40.301z"/>
	<polygon fill="#FFFFFF" points="25.937,15.755 25.937,15.045 24.308,15.045 24.222,15.388 23.228,15.388 23.228,15.472 
		23.228,16.38 25.469,16.38 	"/>
	<polygon fill="#FFFFFF" points="37.229,30.013 37.229,29.13 35.498,28.62 35.383,28.62 35.383,29.44 35.779,30.013 	"/>
	<path fill="#FFFFFF" d="M90.289,29.646v2.013l0.886-0.124l0.472,0.02c-0.336-0.755-0.688-1.499-1.065-2.234L90.289,29.646z"/>
	<path fill="#FFFFFF" d="M25.898,18.509c0,0,0.086-0.992,0-0.992s-1.08,0.169-1.08,0.169l-1.59,0.454l0.427,0.511L25.898,18.509z"/>
	<polygon fill="#FFFFFF" points="37.002,27.917 36.304,27.484 35.894,27.917 36.444,28.376 	"/>
	<path fill="#FFFFFF" d="M33.482,29.13l0.849-0.157l0.683-0.44v-0.907h-1.532C33.482,27.769,33.482,29.13,33.482,29.13z"/>
	<path fill="#FFFFFF" d="M96.163,31.658l-0.151-0.84l-0.271-0.111c0.132,0.313,0.251,0.633,0.377,0.951H96.163z"/>
	<polygon fill="#FFFFFF" points="33.482,29.924 32.798,29.983 32.571,30.977 34.019,30.977 34.673,30.323 34.673,29.44 
		33.623,29.583 	"/>
	<path fill="#FFFFFF" d="M11.523,25.645c-0.646,1.017-1.254,2.056-1.819,3.124l1.89-2.296L11.523,25.645z"/>
	<path fill="#FFFFFF" d="M81.158,21.975l0.197,0.65l3.127,0.029l0.894-1.331c-0.719-0.883-1.472-1.734-2.25-2.56l-0.01,2.217
		L81.158,21.975z"/>
	<polygon fill="#FFFFFF" points="72.706,22.438 72.801,23.176 71.698,23.404 71.548,24.976 72.875,24.976 74.635,24.806 
		75.54,23.726 74.577,23.35 74.048,22.74 73.252,21.454 72.875,19.634 71.381,19.938 70.963,20.579 70.963,21.304 71.68,21.795 	"/>
	<polygon fill="#FFFFFF" points="71.436,23.042 71.514,22.06 70.641,21.681 69.411,21.964 68.501,23.422 68.501,24.368 
		69.562,24.368 	"/>
	<path fill="#FFFFFF" d="M46.216,27.224l-0.269,0.693h-1.305v0.674h0.31c0,0,0.019,0.144,0.044,0.33l0.801-0.066l0.5-0.31
		l0.13-0.627l0.647-0.055l0.255-0.527l-0.593-0.123L46.216,27.224z"/>
	<polygon fill="#FFFFFF" points="42.851,28.445 42.8,29.105 43.747,29.025 43.845,28.364 43.276,27.917 	"/>
	<path fill="#FFFFFF" d="M99.633,49.486c-0.015-1.452-0.087-2.894-0.227-4.312c-0.459-4.731-1.59-9.267-3.286-13.518
		c-0.129-0.317-0.243-0.637-0.375-0.95c-2.261-5.335-5.433-10.192-9.313-14.386c-0.252-0.273-0.512-0.542-0.771-0.809
		c-0.737-0.762-1.486-1.505-2.269-2.219C74.568,5.259,62.848,0.354,50,0.354c-12.958,0-24.763,4.992-33.613,13.149
		c-2.061,1.901-3.957,3.977-5.676,6.198C4.227,28.09,0.355,38.599,0.355,49.999c0,27.376,22.273,49.646,49.646,49.646
		c19.257,0,35.974-11.025,44.204-27.09c1.759-3.436,3.132-7.099,4.053-10.935c0.235-0.972,0.438-1.95,0.614-2.942
		c0.498-2.82,0.772-5.719,0.772-8.68C99.646,49.827,99.633,49.658,99.633,49.486z M9.707,28.769
		c-0.586,1.106-1.134,2.238-1.629,3.399v2.594l1.893,0.91v3.604l1.815,3.098l1.476,0.228l0.19-1.062l-1.742-2.688l-0.341-2.611
		h1.021l0.431,2.688l2.518,3.673l-0.651,1.187l1.601,2.449l3.976,0.983v-0.644l1.59,0.227l-0.151,1.136l1.249,0.229l1.931,0.526
		l2.726,3.104l3.481,0.264l0.341,2.838l-2.383,1.668l-0.113,2.537l-0.341,1.552l3.447,4.317l0.263,1.478c0,0,1.25,0.34,1.403,0.34
		c0.152,0,2.801,2.007,2.801,2.007V76.6l0.945,0.265l-0.643,3.597l1.59,2.122l-0.294,3.565l2.102,3.693l2.696,2.354l2.712,0.054
		l0.265-0.873l-1.993-1.681l0.115-0.83l0.358-1.021l0.075-1.043l-1.348-0.039l-0.679-0.853l1.118-1.079l0.151-0.812l-1.249-0.356
		l0.073-0.755l1.781-0.271l2.707-1.3l0.909-1.668l2.84-3.634l-0.646-2.844l0.873-1.515l2.612,0.08l1.76-1.396l0.568-5.48l1.95-2.479
		l0.338-1.592l-1.777-0.57l-1.172-1.926l-4.014-0.039l-3.183-1.213L47.9,54.79l-1.062-1.854l-2.877-0.041l-1.663-2.611l-1.477-0.721
		l-0.075,0.796l-2.688,0.16l-0.984-1.37l-2.804-0.569l-2.31,2.667l-3.634-0.615l-0.264-4.096L25.41,46.08l1.063-2.009l-0.299-1.152
		l-3.485,2.33l-2.194-0.268l-0.782-1.712l0.478-1.767l1.209-2.229l2.783-1.409l5.375-0.001l-0.014,1.639l1.932,0.898l-0.153-2.801
		l1.393-1.4l2.81-1.847l0.191-1.298l2.801-2.917l2.98-1.65l-0.264-0.217l2.017-1.898l0.74,0.195l0.339,0.425l0.766-0.849
		l0.188-0.084l-0.839-0.119l-0.854-0.282v-0.817l0.452-0.369h0.994l0.456,0.2l0.394,0.795l0.482-0.072v-0.07l0.139,0.047
		l1.396-0.214l0.198-0.682l0.796,0.2v0.738l-0.738,0.509h0.002l0.108,0.812l2.531,0.78c0,0,0.004,0.01,0.006,0.029l0.582-0.048
		l0.041-1.097l-2.008-0.912l-0.114-0.529l1.665-0.566l0.072-1.594l-1.739-1.06l-0.115-2.685l-2.385,1.172h-0.871l0.229-2.045
		l-3.246-0.766l-1.345,1.016v3.095l-2.416,0.766L38.19,24.31l-1.049,0.169v-2.58l-2.271-0.314l-1.134-0.737l-0.458-1.674
		l4.061-2.376l1.987-0.604l0.201,1.336l1.106-0.058l0.086-0.672l1.158-0.166l0.021-0.234l-0.499-0.206l-0.115-0.71l1.424-0.12
		l0.859-0.896l0.047-0.065l0.01,0.004l0.261-0.269l2.992-0.378l1.324,1.122l-3.47,1.85l4.415,1.041l0.571-1.477h1.93l0.683-1.286
		l-1.361-0.341V13.04l-4.279-1.895l-2.952,0.341l-1.666,0.872l0.113,2.12l-1.742-0.266l-0.269-1.173l1.667-1.515l-3.028-0.151
		l-0.87,0.264l-0.377,1.021l1.134,0.192l-0.226,1.135l-1.93,0.115l-0.302,0.755l-2.8,0.078c0,0-0.078-1.59-0.19-1.59
		c-0.111,0,2.195-0.037,2.195-0.037l1.668-1.631l-0.91-0.456l-1.212,1.178l-2.009-0.115l-1.21-1.666h-2.576l-2.686,2.007h2.463
		l0.224,0.721l-0.639,0.595l2.726,0.076l0.417,0.983l-3.07-0.115l-0.149-0.757l-1.929-0.416l-1.023-0.567l-2.298,0.019
		C30.754,7.682,40.002,4.438,50,4.438c11.521,0,22.048,4.307,30.08,11.383l-0.543,0.967l-2.102,0.823l-0.886,0.961l0.2,1.122
		l1.085,0.151l0.657,1.634l1.865-0.754l0.312,2.185h-0.564l-1.535-0.226l-1.701,0.284l-1.646,2.327l-2.354,0.37l-0.343,2.019
		l0.994,0.233l-0.285,1.297l-2.344-0.47l-2.146,0.47l-0.452,1.194l0.368,2.506l1.263,0.591l2.112-0.012l1.428-0.128L73.9,32.23
		l2.229-2.898l1.467,0.301l1.447-1.306l0.268,1.021l3.558,2.398l-0.433,0.584l-1.604-0.085l0.617,0.873l0.985,0.216l1.154-0.481
		l-0.021-1.394l0.516-0.257l-0.415-0.437l-2.372-1.323l-0.625-1.756h1.971l0.629,0.624l1.701,1.465l0.071,1.77l1.763,1.875
		l0.653-2.567l1.22-0.667l0.227,2.102l1.193,1.306l2.373-0.04c0.459,1.182,0.873,2.385,1.232,3.611l-0.252,0.23h-3.633l-2.213-1.648
		l-2.33,0.228v1.422h-0.737l-0.794-0.568l-4.036-1.022v-2.615l-5.11,0.396l-1.584,0.853h-2.031l-0.996-0.101l-2.465,1.367v2.575
		l-5.037,3.635l0.418,1.551h1.021l-0.268,1.479l-0.719,0.264l-0.035,3.862l4.353,4.958h1.896l0.115-0.303h3.404l0.98-0.908h1.936
		l1.061,1.06l2.877,0.302l-0.379,3.825l3.194,5.646l-1.687,3.216l0.117,1.518l1.324,1.321v3.641l1.737,2.342v3.026h1.504
		C76.975,88.984,64.241,95.562,50,95.562C24.877,95.562,4.438,75.122,4.438,50c0-6.324,1.299-12.352,3.638-17.831 M9.705,28.769
		c0.565-1.068,1.171-2.11,1.819-3.124 M33.762,26.317"/>
</g>
</svg>
