<?xml version="1.0" encoding="utf-8"?>
<!-- Generator: Adobe Illustrator 16.2.1, SVG Export Plug-In . SVG Version: 6.00 Build 0)  -->
<!DOCTYPE svg PUBLIC "-//W3C//DTD SVG 1.1//EN" "http://www.w3.org/Graphics/SVG/1.1/DTD/svg11.dtd">
<svg version="1.1" id="Layer_1" xmlns="http://www.w3.org/2000/svg" xmlns:xlink="http://www.w3.org/1999/xlink" x="0px" y="0px"
	 width="100px" height="100px" viewBox="-18 -18 100 100" enable-background="new -18 -18 100 100" xml:space="preserve">
<g>
	<polygon fill="none" points="11.333,6.048 11.704,4.6 10.625,4.344 9.432,4.91 10.169,6.418 	"/>
	<polygon fill="none" points="14.571,9.626 13.066,9.626 12.015,10.761 11.843,11.897 12.642,12.324 	"/>
	<polygon fill="none" points="15.762,9.256 15.762,8.318 15.366,8.318 15.366,7.78 13.579,7.78 12.27,8.318 12.015,8.973 
		13.038,9.256 	"/>
	<polygon fill="none" points="16.246,8.176 16.246,9.256 17.184,9.029 	"/>
	<path fill="none" d="M76.514,22.302c-0.058-0.259-0.118-0.517-0.18-0.775l-0.145,0.167L76.514,22.302z"/>
	<polygon fill="none" points="7.937,-2.244 7.937,-2.954 6.308,-2.954 6.222,-2.612 5.228,-2.612 5.228,-2.528 5.228,-1.619 
		7.469,-1.619 	"/>
	<polygon fill="none" points="19.229,12.013 19.229,11.131 17.498,10.621 17.383,10.621 17.383,11.441 17.779,12.013 	"/>
	<path fill="none" d="M70.909,14.282l-0.227-2.102l-1.222,0.667l-0.654,2.569l-1.76-1.875l-0.072-1.771l-1.7-1.464l-0.632-0.625
		h-1.97l0.625,1.759l2.37,1.323l0.415,0.438l-0.515,0.256l0.024,1.394l-1.156,0.481l-0.99-0.216l-0.617-0.874l1.605,0.085
		l0.432-0.583l-3.557-2.4l-0.267-1.021l-1.448,1.307l-1.466-0.299l-2.229,2.897l-0.437,1.136l-1.428,0.129l-2.112,0.011l-1.263-0.59
		l-0.368-2.508l0.452-1.194l2.146-0.469l2.343,0.469l0.285-1.296l-0.993-0.236l0.342-2.017l2.354-0.37l1.648-2.328l1.702-0.285
		l1.535,0.226h0.565L62.361,2.72l-1.867,0.754l-0.657-1.635l-1.085-0.15l-0.2-1.123l0.884-0.962l2.102-0.823l0.543-0.967
		C54.048-9.256,43.522-13.562,32-13.562c-9.998,0-19.246,3.245-26.769,8.726l2.297-0.018l1.023,0.567l1.929,0.417l0.15,0.757
		L13.7-2.998l-0.417-0.984l-2.724-0.08l0.643-0.604l-0.224-0.721H8.515l2.687-2.007h2.576l1.21,1.666l2.008,0.115l1.212-1.176
		l0.91,0.456l-1.668,1.628c0,0-2.307,0.039-2.196,0.039c0.115,0,0.19,1.59,0.19,1.59l2.8-0.078l0.302-0.755l1.93-0.115l0.227-1.135
		l-1.135-0.192l0.378-1.021l0.869-0.264l3.028,0.151l-1.668,1.515l0.269,1.172l1.742,0.266l-0.113-2.12l1.666-0.873l2.952-0.341
		l4.278,1.895v1.627l1.363,0.341l-0.682,1.287h-1.93L31.15-0.239L26.735-1.28l3.47-1.849l-1.323-1.122L25.89-3.874l-0.262,0.269
		l-0.009-0.004l-0.048,0.065l-0.859,0.896l-1.423,0.12l0.114,0.711l0.499,0.206l-0.021,0.236l-1.157,0.164l-0.086,0.672
		l-1.107,0.057L21.33-1.817l-1.987,0.604l-4.061,2.377l0.458,1.672l1.134,0.739l2.271,0.314v2.582l1.05-0.169l0.968-2.018
		l2.415-0.766V0.423l1.345-1.015l3.246,0.765l-0.228,2.044h0.872l2.385-1.172l0.115,2.686l1.741,1.059l-0.075,1.593L31.313,6.95
		l0.115,0.528l2.005,0.913l-0.038,1.097l-0.584,0.048c-0.001-0.018-0.006-0.031-0.006-0.031l-2.53-0.78l-0.113-0.804H30.16
		l0.739-0.509V6.674l-0.796-0.201l-0.198,0.682l-1.396,0.214L28.37,7.323v0.07l-0.482,0.072l-0.394-0.796l-0.456-0.199h-0.994
		l-0.452,0.369v0.823l0.852,0.284l0.839,0.119l-0.188,0.083L26.33,8.996L25.99,8.572l-0.74-0.195l-2.017,1.898l0.264,0.216
		l-2.98,1.651l-2.801,2.916l-0.191,1.299l-2.81,1.846l-1.393,1.401l0.153,2.8l-1.932-0.898l0.014-1.639l-5.375,0.002L3.4,21.277
		L2.19,23.505l-0.478,1.766l0.781,1.714l2.194,0.267l3.485-2.329l0.304,1.153l-1.063,2.009l2.652,0.454l0.264,4.096l3.634,0.617
		l2.31-2.669l2.804,0.57l0.984,1.37l2.688-0.16l0.075-0.796l1.477,0.721l1.666,2.608l2.878,0.042l1.062,1.855l0.15,2.269
		l3.184,1.214l4.011,0.039l1.173,1.926l1.779,0.57l-0.339,1.592l-1.95,2.479l-0.568,5.481l-1.762,1.395l-2.61-0.08l-0.873,1.514
		l0.646,2.843l-2.84,3.634l-0.909,1.665l-2.708,1.303l-1.781,0.27l-0.074,0.755l1.25,0.357l-0.152,0.812l-1.118,1.079l0.679,0.853
		l1.348,0.039l-0.075,1.043l-0.358,1.021l-0.113,0.832l1.992,1.679l-0.265,0.873l-2.711-0.052l-2.697-2.354l-2.101-3.694
		l0.294-3.566l-1.591-2.122l0.643-3.597l-0.945-0.264v-7.8c0,0-2.65-2.007-2.802-2.007c-0.151,0-1.403-0.34-1.403-0.34l-0.263-1.478
		L10.6,42.656l0.341-1.552l0.113-2.537l2.382-1.667l-0.341-2.838L9.614,33.8l-2.726-3.105l-1.931-0.526l-1.25-0.229l0.152-1.136
		l-1.591-0.226v0.643l-3.976-0.983l-1.601-2.449l0.651-1.187l-2.518-3.673l-0.431-2.688h-1.021l0.341,2.611l1.742,2.688
		l-0.189,1.062l-1.477-0.227l-1.815-3.098v-3.604l-1.892-0.911v-2.593c-2.346,5.479-3.644,11.506-3.644,17.831
		c0,25.122,20.438,45.562,45.563,45.562c14.245,0,26.974-6.573,35.338-16.842h-1.504v-3.027l-1.738-2.341V51.71l-1.328-1.322
		l-0.112-1.514l1.684-3.219l-3.198-5.643l0.38-3.827l-2.877-0.301l-1.061-1.06h-1.934l-0.982,0.91h-3.405l-0.115,0.3h-1.894
		l-4.354-4.957l0.038-3.862l0.72-0.265l0.267-1.478h-1.021l-0.418-1.553l5.034-3.634v-2.576l2.465-1.368l0.996,0.1h2.03l1.587-0.852
		l5.111-0.397v2.613l4.033,1.023l0.796,0.568h0.739v-1.428l2.327-0.226l2.214,1.647h3.636l0.254-0.232
		c-0.362-1.228-0.773-2.43-1.232-3.613l-2.377,0.041L70.909,14.282z M52.963,2.58l0.418-0.641l1.494-0.302l0.377,1.819l0.796,1.287
		l0.529,0.609l0.963,0.375l-0.905,1.081l-1.76,0.169h-1.327l0.151-1.57l1.102-0.228l-0.095-0.738l-1.024-0.643l-0.719-0.492V2.58
		L52.963,2.58z M50.501,5.423l0.91-1.458l1.229-0.284l0.873,0.38l-0.078,0.984l-1.872,1.326h-1.062V5.423z M25.747,11.026
		l-0.949,0.08l0.051-0.658l0.424-0.528l0.569,0.448L25.747,11.026z M29.074,9.863l-0.647,0.055l-0.131,0.627l-0.5,0.309
		l-0.801,0.067c-0.026-0.188-0.045-0.33-0.045-0.33h-0.311V9.918h1.305l0.27-0.694l0.518-0.011l0.595,0.123L29.074,9.863z"/>
	<path fill="none" d="M72.289,11.646v2.013l0.886-0.124l0.471,0.019c-0.336-0.754-0.689-1.499-1.066-2.234L72.289,11.646z"/>
	<path fill="none" d="M7.898,0.51c0,0,0.086-0.993,0-0.993s-1.08,0.169-1.08,0.169l-1.59,0.454l0.427,0.511L7.898,0.51z"/>
	<polygon fill="none" points="19.002,9.918 18.304,9.485 17.894,9.918 18.444,10.377 	"/>
	<path fill="none" d="M15.482,11.131l0.849-0.158l0.683-0.44V9.626h-1.532C15.482,9.769,15.482,11.131,15.482,11.131z"/>
	<path fill="none" d="M78.163,13.659l-0.151-0.84l-0.271-0.111c0.132,0.313,0.251,0.633,0.377,0.951H78.163z"/>
	<polygon fill="none" points="15.482,11.925 14.798,11.984 14.571,12.977 16.019,12.977 16.673,12.324 16.673,11.441 15.623,11.584 
			"/>
	<path fill="none" d="M-6.477,7.645c-0.646,1.017-1.254,2.056-1.819,3.124l1.89-2.296L-6.477,7.645z"/>
	<path fill="none" d="M63.158,3.975l0.198,0.651l3.127,0.029l0.893-1.331c-0.719-0.883-1.472-1.734-2.25-2.56l-0.01,2.217
		L63.158,3.975z"/>
	<polygon points="54.706,4.438 54.801,5.177 53.698,5.405 53.548,6.976 54.875,6.976 56.635,6.806 57.54,5.726 56.577,5.35 
		56.048,4.741 55.252,3.455 54.875,1.635 53.381,1.939 52.963,2.58 52.963,3.304 53.68,3.796 	"/>
	<polygon points="53.435,5.043 53.513,4.06 52.64,3.681 51.411,3.965 50.501,5.423 50.501,6.369 51.562,6.369 	"/>
	<path d="M28.216,9.224l-0.269,0.694h-1.305v0.674h0.31c0,0,0.019,0.143,0.044,0.33l0.801-0.067l0.5-0.309l0.13-0.627l0.647-0.055
		l0.255-0.527l-0.593-0.123L28.216,9.224z"/>
	<polygon points="24.851,10.446 24.8,11.106 25.747,11.026 25.845,10.365 25.276,9.918 	"/>
	<path d="M81.633,31.487c-0.015-1.452-0.087-2.893-0.227-4.312c-0.459-4.732-1.59-9.267-3.286-13.518
		c-0.129-0.317-0.243-0.637-0.375-0.95c-2.26-5.335-5.433-10.193-9.313-14.386c-0.253-0.273-0.512-0.542-0.771-0.809
		c-0.737-0.761-1.486-1.504-2.268-2.218C56.569-12.74,44.846-17.645,32-17.645c-12.958,0-24.763,4.992-33.613,13.15
		C-3.674-2.594-5.57-0.519-7.289,1.703C-13.773,10.091-17.645,20.599-17.645,32c0,27.376,22.273,49.646,49.646,49.646
		c19.257,0,35.974-11.026,44.204-27.09c1.759-3.435,3.132-7.098,4.053-10.934c0.235-0.972,0.438-1.95,0.614-2.943
		c0.498-2.82,0.773-5.718,0.773-8.679C81.646,31.828,81.633,31.659,81.633,31.487z M72.289,11.646l0.29-0.323
		c0.377,0.733,0.73,1.479,1.066,2.233l-0.471-0.018l-0.886,0.123V11.646z M65.115,2.983l0.007-2.217
		c0.782,0.826,1.531,1.678,2.251,2.561l-0.895,1.332l-3.127-0.028l-0.196-0.652L65.115,2.983z M5.228-2.528v-0.083h0.994
		l0.086-0.342h1.627v0.711L7.467-1.618H5.226v-0.911H5.228z M6.818-0.313c0,0,0.994-0.169,1.08-0.169s0,0.993,0,0.993L5.654,0.651
		L5.228,0.141L6.818-0.313z M75.451,19.395h-3.632l-2.214-1.648l-2.329,0.227v1.422h-0.738l-0.794-0.568l-4.036-1.023V15.19
		l-5.111,0.397l-1.584,0.852h-2.03l-0.997-0.1l-2.465,1.367v2.575l-5.038,3.635l0.419,1.551h1.021l-0.268,1.479l-0.718,0.264
		l-0.036,3.862l4.353,4.958h1.894l0.116-0.302h3.405l0.981-0.908h1.935l1.059,1.059l2.877,0.3l-0.378,3.827l3.195,5.645
		l-1.685,3.215l0.116,1.518l1.325,1.321v3.641l1.737,2.341v3.027h1.504C58.975,70.987,46.241,77.562,32,77.562
		C6.877,77.562-13.562,57.122-13.562,32c0-6.324,1.299-12.352,3.638-17.831v-1.421l1.629-1.979c0.565-1.068,1.171-2.11,1.819-3.124
		l0.073,0.828l-1.89,2.296c-0.586,1.107-1.134,2.239-1.629,3.4v2.593l1.893,0.911v3.604l1.815,3.098l1.476,0.227l0.19-1.062
		l-1.742-2.688l-0.341-2.611h1.021l0.431,2.688l2.518,3.673l-0.651,1.187l1.601,2.449l3.976,0.983v-0.643l1.59,0.226L3.704,29.94
		l1.249,0.229l1.931,0.526L9.61,33.8l3.481,0.263l0.341,2.838l-2.383,1.667l-0.113,2.537l-0.341,1.552l3.447,4.317l0.263,1.478
		c0,0,1.25,0.34,1.403,0.34c0.152,0,2.801,2.007,2.801,2.007v7.8l0.945,0.264l-0.643,3.597l1.59,2.122l-0.294,3.566l2.102,3.694
		l2.696,2.354l2.712,0.052l0.265-0.873l-1.993-1.679l0.115-0.832l0.358-1.021l0.075-1.043l-1.348-0.039l-0.679-0.853l1.118-1.079
		l0.151-0.812l-1.249-0.357l0.073-0.755l1.781-0.27l2.707-1.3l0.909-1.668l2.84-3.634l-0.646-2.843l0.873-1.514l2.612,0.08
		l1.76-1.395l0.568-5.481l1.95-2.479l0.339-1.592l-1.778-0.57l-1.172-1.926l-4.013-0.039l-3.183-1.214l-0.15-2.269l-1.062-1.855
		l-2.877-0.042l-1.663-2.611l-1.477-0.721l-0.075,0.796l-2.688,0.159l-0.984-1.369l-2.804-0.569l-2.31,2.667l-3.634-0.615
		l-0.264-4.096l-2.652-0.454l1.063-2.009L8.174,24.92l-3.485,2.33l-2.194-0.268L1.713,25.27l0.478-1.766L3.4,21.275l2.783-1.409
		l5.375-0.001l-0.014,1.639l1.932,0.898l-0.153-2.801l1.393-1.4l2.81-1.847l0.191-1.298l2.801-2.917l2.98-1.65l-0.264-0.217
		l2.017-1.898l0.74,0.195l0.339,0.425l0.766-0.849l0.188-0.084l-0.839-0.119L25.591,7.66V6.843l0.452-0.37h0.994l0.456,0.201
		l0.394,0.795l0.482-0.073v-0.07l0.139,0.047l1.396-0.214l0.198-0.682l0.796,0.201v0.738L30.16,7.925h0.002l0.108,0.811l2.531,0.78
		c0,0,0.002,0.01,0.005,0.03l0.582-0.048l0.04-1.097l-2.006-0.912L31.308,6.96l1.663-0.567l0.074-1.593l-1.739-1.06l-0.115-2.685
		l-2.385,1.172h-0.871l0.229-2.045l-3.246-0.765l-1.345,1.015v3.095l-2.416,0.766l-0.967,2.017l-1.049,0.169v-2.58L16.87,3.585
		l-1.134-0.738l-0.458-1.673l4.061-2.376l1.987-0.605l0.201,1.336l1.106-0.058L22.719-1.2l1.158-0.166l0.021-0.235l-0.499-0.206
		l-0.115-0.71l1.424-0.12l0.859-0.895l0.047-0.066l0.01,0.004l0.261-0.269l2.992-0.377l1.324,1.122l-3.47,1.849l4.415,1.041
		l0.571-1.476h1.929l0.682-1.286l-1.361-0.341V-4.96l-4.279-1.895l-2.952,0.341l-1.666,0.872l0.113,2.12l-1.742-0.265L22.172-4.96
		l1.667-1.515l-3.028-0.151l-0.87,0.263l-0.377,1.021l1.134,0.192l-0.226,1.135L18.543-3.9l-0.302,0.755l-2.8,0.078
		c0,0-0.078-1.589-0.19-1.589c-0.111,0,2.195-0.038,2.195-0.038l1.668-1.63l-0.91-0.456l-1.212,1.177l-2.009-0.115l-1.21-1.666
		h-2.576L8.511-5.377h2.463l0.224,0.721l-0.639,0.594l2.726,0.076l0.417,0.984l-3.07-0.115l-0.149-0.757L8.554-4.29L7.531-4.858
		L5.233-4.839c7.521-5.479,16.769-8.722,26.767-8.722c11.522,0,22.048,4.307,30.08,11.383l-0.543,0.967l-2.102,0.823l-0.884,0.961
		l0.2,1.122l1.085,0.151l0.657,1.634l1.867-0.754l0.312,2.185h-0.565l-1.535-0.226L58.87,4.97l-1.648,2.327l-2.354,0.37
		l-0.342,2.018l0.993,0.234l-0.285,1.297l-2.343-0.47l-2.146,0.47l-0.452,1.194l0.368,2.506l1.263,0.591l2.112-0.012l1.428-0.128
		l0.437-1.136l2.229-2.898l1.466,0.301l1.448-1.306l0.267,1.021l3.557,2.399l-0.432,0.584l-1.605-0.085l0.617,0.873l0.985,0.216
		l1.156-0.482l-0.022-1.393l0.515-0.257l-0.415-0.437l-2.372-1.323L62.67,9.688h1.97l0.63,0.624l1.7,1.465l0.072,1.77l1.762,1.875
		l0.654-2.568l1.22-0.667l0.227,2.102l1.193,1.306l2.373-0.041c0.458,1.182,0.873,2.385,1.232,3.612L75.451,19.395z M9.432,4.91
		l1.193-0.566L11.703,4.6l-0.372,1.448l-1.164,0.37L9.432,4.91z M15.762,8.318v0.938h-2.724l-1.021-0.283l0.255-0.654l1.309-0.54
		h1.789v0.54H15.762z M17.014,9.626v0.908l-0.683,0.44l-0.849,0.158c0,0,0-1.363,0-1.505H17.014z M16.246,9.256v-1.08l0.938,0.854
		L16.246,9.256z M16.673,11.441v0.884l-0.652,0.653h-1.448l0.228-0.992l0.684-0.06l0.14-0.342L16.673,11.441z M13.066,9.626h1.505
		l-1.93,2.698l-0.796-0.426l0.171-1.136L13.066,9.626z M19.229,11.131v0.881h-1.448l-0.397-0.571v-0.82h0.114L19.229,11.131z
		 M17.894,9.918l0.412-0.433l0.696,0.433l-0.558,0.459L17.894,9.918z M76.189,21.694l0.145-0.167
		c0.062,0.257,0.122,0.514,0.18,0.775L76.189,21.694z"/>
	<path d="M-9.923,12.748v1.421c0.496-1.16,1.042-2.292,1.629-3.4L-9.923,12.748z"/>
</g>
</svg>
