<?xml version="1.0" encoding="utf-8"?>
<!-- Generator: Adobe Illustrator 16.2.1, SVG Export Plug-In . SVG Version: 6.00 Build 0)  -->
<!DOCTYPE svg PUBLIC "-//W3C//DTD SVG 1.1//EN" "http://www.w3.org/Graphics/SVG/1.1/DTD/svg11.dtd">
<svg version="1.1" id="Layer_1" xmlns="http://www.w3.org/2000/svg" xmlns:xlink="http://www.w3.org/1999/xlink" x="0px" y="0px"
	 width="100px" height="100px" viewBox="0 0 100 100" enable-background="new 0 0 100 100" xml:space="preserve">
<g id="heart">
	<path fill="#FFFFFF" d="M90.951,15.119C79.685,3.955,61.672,3.722,49.999,14.224C38.328,3.722,20.317,3.955,9.047,15.119
		c-11.614,11.498-11.614,30.141,0,41.646c3.318,3.289,34.312,33.965,34.312,33.965c3.674,3.639,9.612,3.639,13.28,0
		c0,0,33.939-33.597,34.312-33.966C102.568,45.26,102.568,26.617,90.951,15.119z M86.525,52.38L52.213,86.347
		c-1.221,1.213-3.209,1.213-4.423,0L13.477,52.38c-9.157-9.063-9.157-23.812,0-32.878c8.83-8.739,23.022-9.045,32.314-0.688L50,22.6
		l4.208-3.786c9.295-8.357,23.484-8.054,32.317,0.688C95.682,28.564,95.682,43.313,86.525,52.38z"/>
	<path fill="#FFFFFF" d="M29.048,22.06c-0.006,0-0.006,0.003-0.012,0.003c-7.28,0.006-13.183,5.908-13.183,13.19l0,0
		c0,0.856,0.696,1.552,1.553,1.552c0.855,0,1.552-0.696,1.552-1.552v-0.002c0-5.569,4.517-10.086,10.086-10.086h0.003
		c0.855,0,1.552-0.696,1.552-1.552C30.599,22.757,29.907,22.06,29.048,22.06z"/>
</g>
</svg>
