<?xml version="1.0" encoding="utf-8"?>
<!-- Generator: Adobe Illustrator 16.2.1, SVG Export Plug-In . SVG Version: 6.00 Build 0)  -->
<!DOCTYPE svg PUBLIC "-//W3C//DTD SVG 1.1//EN" "http://www.w3.org/Graphics/SVG/1.1/DTD/svg11.dtd">
<svg version="1.1" id="Layer_1" xmlns="http://www.w3.org/2000/svg" xmlns:xlink="http://www.w3.org/1999/xlink" x="0px" y="0px"
	 width="58.122px" height="57.336px" viewBox="0 0 58.122 57.336" enable-background="new 0 0 58.122 57.336" xml:space="preserve">
<path fill="#FFFFFF" d="M33.92,1.192c-3.074,1.234-5.74,3.277-7.698,5.92c-2.615-1.397-5.544-2.097-8.521-2.074
	C10.849,5.444,7.61,8.197,7.61,8.197c-5.709,3.937-8.779,10.972-7.195,18c3.576,15.865,34.267,29.99,35.55,30.509l1.575,0.63
	l1.152-1.244c0.94-1.02,22.605-26.943,19.031-42.811C56.213,6.572,50.864,1.676,44.426,0.282C37.484-0.698,33.92,1.192,33.92,1.192z
	 M49.522,28.249c-2.992,6.978-8.438,14.765-13.789,21.071c-7.534-3.402-15.793-8.102-21.488-13.121
	c-2.461-2.529-6.211-6.618-7.306-11.473c-1.283-5.691,2.483-11.405,8.394-12.737c3.212-0.724,6.542-0.031,9.129,1.902l3.929,2.845
	l2.334-4.256c1.508-2.856,4.214-4.909,7.431-5.634c5.91-1.332,11.764,2.214,13.046,7.906C52.532,20.662,50.66,24.908,49.522,28.249z
	"/>
</svg>
