<?xml version="1.0" encoding="utf-8"?>
<!-- Generator: Adobe Illustrator 16.2.1, SVG Export Plug-In . SVG Version: 6.00 Build 0)  -->
<!DOCTYPE svg PUBLIC "-//W3C//DTD SVG 1.0//EN" "http://www.w3.org/TR/2001/REC-SVG-20010904/DTD/svg10.dtd">
<svg version="1.0" id="Layer_1" xmlns="http://www.w3.org/2000/svg" xmlns:xlink="http://www.w3.org/1999/xlink" x="0px" y="0px"
	 width="300px" height="300px" viewBox="-120.939 -121.332 300 300" enable-background="new -120.939 -121.332 300 300"
	 xml:space="preserve">
<path fill="#FFFFFF" d="M53.739-110.849c-15.611,6.266-29.148,16.639-39.09,30.06c-13.279-7.093-28.153-10.646-43.268-10.53
	C-63.412-89.258-79.86-75.28-79.86-75.28c-28.988,19.991-44.576,55.714-36.533,91.399c18.159,80.562,174,152.285,180.515,154.918
	l7.994,3.198l5.85-6.317c4.771-5.177,114.785-136.809,96.637-217.38c-7.666-34.069-34.83-58.93-67.518-66.006
	C71.833-120.446,53.739-110.849,53.739-110.849z M132.958,26.54c-15.193,35.43-42.842,74.971-70.016,106.994
	c-38.254-17.276-80.193-41.143-109.11-66.625C-58.664,54.066-77.705,33.304-83.267,8.651c-6.514-28.896,12.607-57.913,42.623-64.676
	c16.309-3.674,33.218-0.156,46.354,9.66l19.951,14.444l11.851-21.61c7.656-14.502,21.398-24.927,37.736-28.607
	c30.006-6.764,59.732,11.241,66.238,40.144C148.241-11.984,138.741,9.576,132.958,26.54z"/>
</svg>
