<?xml version="1.0" encoding="utf-8"?>
<!-- Generator: Adobe Illustrator 16.2.1, SVG Export Plug-In . SVG Version: 6.00 Build 0)  -->
<!DOCTYPE svg PUBLIC "-//W3C//DTD SVG 1.1//EN" "http://www.w3.org/Graphics/SVG/1.1/DTD/svg11.dtd">
<svg version="1.1" id="Layer_1" xmlns="http://www.w3.org/2000/svg" xmlns:xlink="http://www.w3.org/1999/xlink" x="0px" y="0px"
	 width="100px" height="100px" viewBox="-34 -34 100 100" enable-background="new -34 -34 100 100" xml:space="preserve">
<g id="heart">
	<path d="M56.953-18.38c-11.266-11.164-29.279-11.397-40.952-0.895C4.33-29.777-13.68-29.544-24.951-18.38
		c-11.614,11.498-11.614,30.141,0,41.645C-21.633,26.554,9.361,57.23,9.361,57.23c3.673,3.639,9.612,3.639,13.28,0
		c0,0,33.939-33.596,34.312-33.966C68.57,11.761,68.57-6.882,56.953-18.38z M52.527,18.881L18.215,52.848
		c-1.221,1.212-3.209,1.212-4.423,0l-34.313-33.967c-9.157-9.063-9.157-23.812,0-32.878c8.83-8.739,23.022-9.045,32.314-0.688
		l4.209,3.786l4.208-3.786c9.295-8.357,23.485-8.054,32.317,0.688C61.683-4.935,61.683,9.814,52.527,18.881z"/>
	<path d="M-4.95-11.439c-0.006,0-0.006,0.003-0.012,0.003c-7.28,0.006-13.182,5.908-13.182,13.19l0,0
		c0,0.856,0.696,1.552,1.552,1.552s1.552-0.696,1.552-1.552V1.752c0-5.569,4.517-10.086,10.086-10.086h0.003
		c0.856,0,1.552-0.696,1.552-1.552S-4.091-11.439-4.95-11.439z"/>
</g>
</svg>
