<?xml version="1.0" encoding="utf-8"?>
<!-- Generator: Adobe Illustrator 16.2.1, SVG Export Plug-In . SVG Version: 6.00 Build 0)  -->
<!DOCTYPE svg PUBLIC "-//W3C//DTD SVG 1.1//EN" "http://www.w3.org/Graphics/SVG/1.1/DTD/svg11.dtd">
<svg version="1.1" id="Layer_1" xmlns="http://www.w3.org/2000/svg" xmlns:xlink="http://www.w3.org/1999/xlink" x="0px" y="0px"
	 width="625.75px" height="293.75px" viewBox="0 0 625.75 293.75" enable-background="new 0 0 625.75 293.75" xml:space="preserve">
<g id="Layer_3">
</g>
<g id="Layer_2">
</g>
<g id="Layer_1_1_">
	<g>
		<path fill="#FFFFFF" d="M511.495,89.966l18.556-53.391c1.614,0.096,3.266-0.016,4.921-0.389
			c9.507-2.143,15.492-11.62,13.351-21.127C546.179,5.554,536.706-0.436,527.2,1.706c-9.506,2.143-15.498,11.621-13.356,21.124
			c1.005,4.461,3.642,8.134,7.122,10.571l-18.387,52.911C505.627,87.302,508.605,88.526,511.495,89.966z M528.592,7.877
			c6.104-1.375,12.188,2.471,13.562,8.573c1.376,6.104-2.471,12.19-8.572,13.565c-6.104,1.376-12.188-2.471-13.563-8.576
			C518.64,15.337,522.487,9.253,528.592,7.877z"/>
		<path fill="#FFFFFF" d="M411.312,85.756c1.11-0.032,2.236-0.163,3.363-0.417c1.588-0.358,3.066-0.936,4.433-1.666l16.755,18.714
			c2.245-2.309,4.641-4.454,7.194-6.393L426.037,76.98c2.176-3.726,3.017-8.24,1.996-12.768
			c-2.144-9.505-11.622-15.494-21.127-13.351c-9.506,2.143-15.497,11.617-13.355,21.123c1.129,5.008,4.301,9.023,8.435,11.407
			l-20.542,89.585c-1.645-0.107-3.327,0.004-5.02,0.385c-1.627,0.367-3.141,0.961-4.537,1.722l-49.244-56.424
			c1.688-3.48,2.27-7.529,1.354-11.585c-2.142-9.505-11.617-15.498-21.125-13.355c-9.505,2.143-15.497,11.621-13.354,21.126
			c0.405,1.799,1.077,3.474,1.962,4.991L235.172,175.4c-3.691-2.096-8.131-2.898-12.59-1.894
			c-9.506,2.144-15.494,11.62-13.351,21.125c2.143,9.507,11.619,15.494,21.122,13.353c9.507-2.143,15.499-11.615,13.355-21.123
			c-0.374-1.658-0.983-3.202-1.765-4.625l56.472-55.729c3.615,1.945,7.917,2.662,12.229,1.69c2.026-0.457,3.875-1.263,5.534-2.313
			l48.826,55.939c-2.127,3.702-2.945,8.172-1.934,12.661c2.143,9.505,11.621,15.498,21.125,13.355
			c9.506-2.142,15.498-11.622,13.354-21.127c-0.992-4.402-3.567-8.036-6.983-10.477L411.312,85.756z M408.296,57.029
			c6.104-1.376,12.188,2.47,13.562,8.572c1.376,6.104-2.476,12.186-8.574,13.561c-6.104,1.375-12.188-2.471-13.562-8.572
			C398.346,64.489,402.192,58.404,408.296,57.029z M228.963,201.814c-6.102,1.375-12.186-2.472-13.562-8.573
			c-1.375-6.104,2.472-12.185,8.573-13.56c6.105-1.377,12.189,2.469,13.564,8.57C238.91,194.355,235.064,200.439,228.963,201.814z
			 M309.25,122.028c-6.105,1.376-12.187-2.472-13.562-8.574c-1.375-6.105,2.471-12.189,8.573-13.564s12.188,2.471,13.562,8.576
			C319.201,114.563,315.352,120.653,309.25,122.028z M382.803,201.671c-6.102,1.375-12.187-2.473-13.562-8.577
			c-1.375-6.104,2.472-12.188,8.574-13.562c6.104-1.376,12.188,2.47,13.563,8.573C392.754,194.208,388.908,200.295,382.803,201.671z
			"/>
		<path fill="#FFFFFF" d="M620.995,240.583l-86.718-63.565c14.273-26.14,7.398-59.539-17.273-77.618
			c-26.864-19.694-64.748-13.858-84.439,13.008c-19.69,26.865-13.854,64.75,13.008,84.439c24.675,18.084,58.59,14.586,79.221-6.894
			l86.716,63.562c3.574,2.617,8.594,1.844,11.212-1.727C625.341,248.219,624.569,243.203,620.995,240.583z M517.083,174.357
			c-14.466,19.735-42.289,24.023-62.021,9.56c-19.733-14.468-24.022-42.289-9.556-62.022c14.461-19.737,42.284-24.021,62.02-9.556
			C527.261,126.799,531.546,154.626,517.083,174.357z"/>
		<path fill="#FFFFFF" d="M499.521,124.452l3.602-10.359c-2.787-1.69-5.736-3.04-8.807-3.995l-5.301,15.264
			c-3.074,1.234-5.74,3.277-7.698,5.92c-2.615-1.397-5.544-2.097-8.521-2.074l-12.543-14.011c-2.65,1.809-5.091,3.923-7.242,6.337
			l9.695,10.833c-5.709,3.937-8.779,10.972-7.195,18c3.576,15.865,34.267,29.99,35.55,30.509l1.575,0.63l1.152-1.244
			c0.94-1.02,22.605-26.943,19.031-42.811C511.309,130.742,505.96,125.846,499.521,124.452z M504.618,152.419
			c-2.992,6.978-8.438,14.765-13.789,21.071c-7.534-3.402-15.793-8.102-21.488-13.121c-2.461-2.529-6.211-6.618-7.306-11.473
			c-1.283-5.691,2.483-11.405,8.394-12.737c3.212-0.724,6.542-0.031,9.129,1.902l3.929,2.845l2.334-4.256
			c1.508-2.856,4.214-4.909,7.431-5.634c5.91-1.332,11.764,2.214,13.046,7.906C507.628,144.832,505.756,149.078,504.618,152.419z"/>
	</g>
</g>
</svg>
