<?xml version="1.0" encoding="utf-8"?>
<!-- Generator: Adobe Illustrator 16.2.1, SVG Export Plug-In . SVG Version: 6.00 Build 0)  -->
<!DOCTYPE svg PUBLIC "-//W3C//DTD SVG 1.1//EN" "http://www.w3.org/Graphics/SVG/1.1/DTD/svg11.dtd">
<svg version="1.1" xmlns="http://www.w3.org/2000/svg" xmlns:xlink="http://www.w3.org/1999/xlink" x="0px" y="0px"
	 width="625.75px" height="293.75px" viewBox="0 0 625.75 293.75" enable-background="new 0 0 625.75 293.75" xml:space="preserve">
<g id="Layer_3">
</g>
<g id="Layer_2">
</g>
<g id="Layer_1">
	<g>
	</g>
	<g>
		<path fill="#FFFFFF" d="M511.495,89.966l18.556-53.391c1.614,0.096,3.265-0.016,4.921-0.389
			c9.506-2.143,15.492-11.62,13.35-21.127C546.179,5.554,536.706-0.436,527.2,1.706c-9.506,2.143-15.498,11.621-13.356,21.124
			c1.005,4.461,3.641,8.134,7.122,10.571l-18.387,52.911C505.627,87.302,508.605,88.526,511.495,89.966z M528.592,7.877
			c6.103-1.375,12.187,2.471,13.562,8.573c1.376,6.104-2.47,12.19-8.572,13.565c-6.104,1.376-12.188-2.471-13.563-8.576
			C518.64,15.337,522.487,9.253,528.592,7.877z"/>
		<path fill="#FFFFFF" d="M411.312,85.756c1.111-0.032,2.237-0.163,3.364-0.417c1.588-0.358,3.066-0.936,4.432-1.666l16.755,18.714
			c2.245-2.309,4.641-4.454,7.195-6.393L426.037,76.98c2.176-3.726,3.017-8.24,1.996-12.768
			c-2.143-9.505-11.622-15.494-21.127-13.351c-9.506,2.143-15.497,11.617-13.355,21.123c1.129,5.008,4.301,9.023,8.434,11.407
			l-20.542,89.585c-1.644-0.107-3.327,0.005-5.019,0.386c-1.627,0.367-3.141,0.96-4.537,1.721l-49.244-56.424
			c1.688-3.48,2.269-7.529,1.354-11.585c-2.142-9.505-11.617-15.498-21.125-13.355c-9.505,2.143-15.497,11.621-13.354,21.126
			c0.405,1.799,1.077,3.474,1.962,4.991L235.172,175.4c-3.691-2.096-8.131-2.898-12.59-1.893
			c-9.506,2.143-15.494,11.62-13.351,21.125c2.143,9.507,11.619,15.494,21.122,13.353c9.507-2.143,15.499-11.616,13.355-21.123
			c-0.374-1.659-0.983-3.203-1.765-4.625l56.472-55.73c3.615,1.945,7.917,2.662,12.23,1.69c2.026-0.457,3.875-1.263,5.534-2.313
			l48.826,55.939c-2.127,3.703-2.945,8.172-1.934,12.661c2.143,9.505,11.621,15.499,21.125,13.356
			c9.506-2.142,15.498-11.622,13.355-21.127c-0.992-4.402-3.568-8.036-6.984-10.476L411.312,85.756z M408.296,57.029
			c6.104-1.376,12.187,2.47,13.562,8.572c1.376,6.104-2.475,12.186-8.574,13.561c-6.103,1.375-12.188-2.471-13.562-8.572
			C398.346,64.489,402.192,58.404,408.296,57.029z M228.963,201.814c-6.102,1.375-12.186-2.471-13.562-8.573
			c-1.375-6.104,2.472-12.185,8.573-13.56c6.105-1.376,12.189,2.47,13.564,8.571C238.91,194.355,235.064,200.439,228.963,201.814z
			 M309.25,122.028c-6.105,1.376-12.187-2.472-13.562-8.574c-1.375-6.105,2.471-12.189,8.573-13.564
			c6.101-1.375,12.187,2.471,13.562,8.576C319.201,114.563,315.352,120.653,309.25,122.028z M382.803,201.671
			c-6.102,1.375-12.187-2.473-13.562-8.577s2.472-12.188,8.574-13.562c6.104-1.376,12.188,2.47,13.564,8.573
			C392.754,194.208,388.908,200.295,382.803,201.671z"/>
		<path fill="#FFFFFF" d="M620.995,240.583l-86.718-63.565c14.274-26.14,7.399-59.539-17.273-77.618
			c-26.864-19.694-64.748-13.858-84.44,13.008c-19.69,26.865-13.854,64.75,13.008,84.439c24.675,18.085,58.59,14.587,79.221-6.893
			l86.716,63.562c3.574,2.617,8.594,1.844,11.212-1.727C625.341,248.219,624.569,243.203,620.995,240.583z M517.083,174.357
			c-14.466,19.736-42.289,24.024-62.021,9.56c-19.733-14.468-24.022-42.289-9.555-62.022c14.461-19.737,42.284-24.021,62.019-9.556
			C527.261,126.799,531.546,154.626,517.083,174.357z"/>
		<path fill="#FFFFFF" d="M499.521,124.452l3.602-10.359c-2.787-1.69-5.736-3.04-8.807-3.995l-5.3,15.264
			c-3.075,1.234-5.741,3.277-7.699,5.92c-2.615-1.397-5.544-2.097-8.521-2.074l-12.543-14.011c-2.65,1.809-5.091,3.923-7.242,6.337
			l9.695,10.833c-5.709,3.937-8.779,10.972-7.195,18c3.576,15.866,34.266,29.991,35.55,30.509l1.575,0.63l1.152-1.244
			c0.941-1.02,22.606-26.944,19.031-42.811C511.309,130.742,505.96,125.846,499.521,124.452z M504.618,152.419
			c-2.992,6.978-8.437,14.764-13.789,21.071c-7.534-3.402-15.793-8.101-21.488-13.121c-2.461-2.529-6.211-6.618-7.306-11.472
			c-1.283-5.692,2.484-11.406,8.394-12.738c3.212-0.724,6.542-0.031,9.129,1.902l3.928,2.845l2.334-4.256
			c1.508-2.856,4.214-4.909,7.431-5.634c5.91-1.332,11.764,2.214,13.046,7.906C507.628,144.832,505.756,149.078,504.618,152.419z"/>
	</g>
	<g>
		<path fill="#FFFFFF" d="M108.025,206.871h15.373c1.454,0,2.181,0.727,2.181,2.181v62.425c0,1.455-0.727,2.182-2.181,2.182h-8.517
			c-1.455,0-2.182-0.727-2.182-2.182v-49.233h-0.415l-10.595,34.796c-0.416,1.386-1.282,2.078-2.597,2.078h-8.725
			c-1.316,0-2.181-0.691-2.597-2.078l-10.802-34.9h-0.416v49.337c0,0.832-0.14,1.402-0.416,1.715
			c-0.278,0.311-0.867,0.467-1.766,0.467h-8.518c-1.454,0-2.181-0.727-2.181-2.182v-62.425c0-1.454,0.727-2.181,2.181-2.181h15.477
			c0.969,0,1.626,0.485,1.974,1.454l11.01,36.666h0.624l11.114-36.666C106.259,207.356,106.917,206.871,108.025,206.871z"/>
		<path fill="#FFFFFF" d="M177.098,273.658h-22.955c-5.471,0-9.695-1.454-12.672-4.362c-2.979-2.909-4.466-7.097-4.466-12.568
			v-19.112c0-5.469,1.488-9.66,4.466-12.568c2.977-2.909,7.201-4.363,12.672-4.363h8.206c5.469,0,9.694,1.454,12.672,4.363
			c2.977,2.908,4.466,7.099,4.466,12.568v13.191c0,1.454-0.727,2.181-2.181,2.181h-26.071c-0.831,0-1.247,0.381-1.247,1.143v2.285
			c0,2.147,0.467,3.688,1.402,4.622c0.935,0.935,2.509,1.402,4.726,1.402h20.981c1.454,0,2.181,0.763,2.181,2.285v6.855
			c0,0.763-0.156,1.298-0.467,1.61C178.5,273.502,177.929,273.658,177.098,273.658z M151.234,244.16h14.126
			c0.761,0,1.143-0.38,1.143-1.143v-4.986c0-2.215-0.451-3.773-1.35-4.674c-0.901-0.899-2.459-1.35-4.674-1.35h-4.362
			c-2.217,0-3.775,0.451-4.674,1.35c-0.901,0.901-1.35,2.459-1.35,4.674v4.986C150.092,243.78,150.471,244.16,151.234,244.16z"/>
		<path fill="#FFFFFF" d="M190.495,232.111h-4.155c-0.831,0-1.402-0.138-1.714-0.416c-0.312-0.276-0.467-0.831-0.467-1.662v-7.167
			c0-1.454,0.727-2.181,2.181-2.181h4.155c0.761,0,1.143-0.38,1.143-1.143v-9.868c0-1.454,0.761-2.181,2.285-2.181h8.725
			c1.454,0,2.182,0.727,2.182,2.181v9.868c0,0.763,0.415,1.143,1.246,1.143h8.102c1.454,0,2.181,0.727,2.181,2.181v7.167
			c0,0.763-0.156,1.298-0.467,1.61c-0.312,0.312-0.883,0.468-1.714,0.468h-8.102c-0.831,0-1.246,0.381-1.246,1.143v22.955
			c0,2.147,0.483,3.688,1.454,4.623c0.969,0.935,2.561,1.402,4.778,1.402h4.155c1.454,0,2.181,0.728,2.181,2.182v7.167
			c0,0.763-0.156,1.298-0.467,1.61c-0.312,0.311-0.883,0.467-1.714,0.467h-6.336c-5.471,0-9.712-1.454-12.724-4.362
			c-3.012-2.909-4.518-7.063-4.518-12.464v-23.578C191.638,232.492,191.256,232.111,190.495,232.111z"/>
		<path fill="#FFFFFF" d="M244.61,273.658h-2.493c-5.471,0-9.695-1.454-12.672-4.362c-2.979-2.909-4.466-7.097-4.466-12.568v-19.112
			c0-5.469,1.488-9.66,4.466-12.568c2.977-2.909,7.201-4.363,12.672-4.363h23.994c1.522,0,2.285,0.727,2.285,2.181v48.61
			c0,1.455-0.763,2.182-2.285,2.182h-8.725c-1.454,0-2.181-0.727-2.181-2.182v-3.428h-0.416c-0.763,1.87-2.113,3.272-4.051,4.207
			C248.799,273.191,246.756,273.658,244.61,273.658z M255.205,254.338v-21.085c0-0.761-0.416-1.143-1.247-1.143h-9.764
			c-2.217,0-3.775,0.467-4.674,1.402c-0.901,0.935-1.351,2.511-1.351,4.726v17.866c0,2.217,0.45,3.791,1.351,4.726
			c0.899,0.935,2.457,1.402,4.674,1.402h3.843C252.816,262.232,255.205,259.602,255.205,254.338z"/>
		<path fill="#FFFFFF" d="M280.86,271.477v-62.425c0-1.454,0.727-2.181,2.181-2.181h25.655c5.401,0,9.608,1.472,12.62,4.415
			c3.013,2.944,4.519,7.115,4.519,12.516v32.926c0,5.401-1.506,9.573-4.519,12.517c-3.012,2.943-7.219,4.414-12.62,4.414h-25.655
			C281.587,273.658,280.86,272.932,280.86,271.477z M295.194,262.232h11.322c2.215,0,3.791-0.467,4.726-1.402
			c0.936-0.935,1.402-2.509,1.402-4.726v-31.68c0-2.215-0.467-3.791-1.402-4.726c-0.935-0.935-2.511-1.402-4.726-1.402h-11.322
			c-0.763,0-1.143,0.382-1.143,1.143v41.651C294.051,261.853,294.431,262.232,295.194,262.232z"/>
		<path fill="#FFFFFF" d="M355.853,273.658h-2.493c-5.471,0-9.695-1.454-12.672-4.362c-2.979-2.909-4.467-7.097-4.467-12.568
			v-19.112c0-5.469,1.488-9.66,4.467-12.568c2.977-2.909,7.201-4.363,12.672-4.363h23.993c1.522,0,2.285,0.727,2.285,2.181v48.61
			c0,1.455-0.763,2.182-2.285,2.182h-8.725c-1.454,0-2.181-0.727-2.181-2.182v-3.428h-0.416c-0.763,1.87-2.113,3.272-4.051,4.207
			C360.041,273.191,357.998,273.658,355.853,273.658z M366.447,254.338v-21.085c0-0.761-0.416-1.143-1.247-1.143h-9.764
			c-2.217,0-3.774,0.467-4.674,1.402c-0.9,0.935-1.351,2.511-1.351,4.726v17.866c0,2.217,0.45,3.791,1.351,4.726
			c0.899,0.935,2.457,1.402,4.674,1.402h3.844C364.058,262.232,366.447,259.602,366.447,254.338z"/>
		<path fill="#FFFFFF" d="M392.205,232.111h-4.155c-0.83,0-1.401-0.138-1.714-0.416c-0.312-0.276-0.467-0.831-0.467-1.662v-7.167
			c0-1.454,0.727-2.181,2.181-2.181h4.155c0.761,0,1.143-0.38,1.143-1.143v-9.868c0-1.454,0.761-2.181,2.285-2.181h8.725
			c1.454,0,2.182,0.727,2.182,2.181v9.868c0,0.763,0.415,1.143,1.246,1.143h8.102c1.454,0,2.182,0.727,2.182,2.181v7.167
			c0,0.763-0.156,1.298-0.468,1.61c-0.312,0.312-0.883,0.468-1.714,0.468h-8.102c-0.831,0-1.246,0.381-1.246,1.143v22.955
			c0,2.147,0.483,3.688,1.454,4.623c0.969,0.935,2.561,1.402,4.777,1.402h4.155c1.454,0,2.182,0.728,2.182,2.182v7.167
			c0,0.763-0.156,1.298-0.468,1.61c-0.312,0.311-0.883,0.467-1.714,0.467h-6.336c-5.471,0-9.712-1.454-12.724-4.362
			c-3.013-2.909-4.519-7.063-4.519-12.464v-23.578C393.348,232.492,392.966,232.111,392.205,232.111z"/>
		<path fill="#FFFFFF" d="M428.248,211.752v-9.037c0-1.384,0.691-2.077,2.077-2.077h9.036c1.385,0,2.078,0.659,2.078,1.973v9.141
			c0,1.386-0.693,2.077-2.078,2.077h-9.036C428.939,213.83,428.248,213.138,428.248,211.752z M428.248,271.477v-48.61
			c0-1.454,0.691-2.181,2.077-2.181h8.933c1.454,0,2.182,0.727,2.182,2.181v48.61c0,0.901-0.156,1.49-0.468,1.766
			c-0.312,0.277-0.849,0.416-1.61,0.416h-8.933C428.975,273.658,428.248,272.932,428.248,271.477z"/>
		<path fill="#FFFFFF" d="M464.393,273.658h-8.829c-1.454,0-2.181-0.727-2.181-2.182v-48.61c0-1.454,0.727-2.181,2.181-2.181h8.829
			c1.454,0,2.182,0.727,2.182,2.181v3.428h0.415c1.522-3.739,4.916-5.609,10.18-5.609h3.323c10.871,0,16.308,5.645,16.308,16.931
			v33.861c0,1.455-0.763,2.182-2.285,2.182h-8.725c-1.454,0-2.182-0.727-2.182-2.182v-33.238c0-2.215-0.467-3.791-1.402-4.726
			c-0.935-0.935-2.511-1.402-4.726-1.402h-3.739c-4.778,0-7.167,2.632-7.167,7.894v31.472
			C466.574,272.932,465.847,273.658,464.393,273.658z"/>
		<path fill="#FFFFFF" d="M526.402,271.27h-3.428c-5.333,0-9.366-1.455-12.101-4.363c-2.736-2.908-4.103-7.097-4.103-12.568v-16.723
			c0-5.469,1.488-9.66,4.466-12.568c2.977-2.909,7.201-4.363,12.672-4.363h23.994c1.522,0,2.285,0.727,2.285,2.181v51.208
			c0,5.4-1.506,9.555-4.519,12.464c-3.012,2.908-7.219,4.362-12.62,4.362h-19.942c-0.831,0-1.402-0.156-1.714-0.467
			c-0.312-0.312-0.468-0.85-0.468-1.61v-7.167c0-1.454,0.728-2.182,2.182-2.182h17.762c2.215,0,3.791-0.467,4.726-1.402
			c0.935-0.935,1.402-2.477,1.402-4.621v-7.895h-0.416c-0.763,1.869-2.112,3.289-4.051,4.258
			C530.591,270.785,528.548,271.27,526.402,271.27z M536.997,251.95v-18.696c0-0.761-0.416-1.143-1.246-1.143h-9.764
			c-2.218,0-3.775,0.467-4.675,1.402c-0.9,0.935-1.35,2.511-1.35,4.726v15.477c0,2.217,0.449,3.775,1.35,4.674
			c0.899,0.9,2.457,1.35,4.675,1.35h3.843C534.608,259.74,536.997,257.143,536.997,251.95z"/>
	</g>
	<g>
	</g>
	<g>
	</g>
	<g>
	</g>
	<g>
	</g>
	<g>
	</g>
	<g>
	</g>
</g>
</svg>
