<?xml version="1.0" encoding="utf-8"?>
<!-- Generator: Adobe Illustrator 16.2.1, SVG Export Plug-In . SVG Version: 6.00 Build 0)  -->
<!DOCTYPE svg PUBLIC "-//W3C//DTD SVG 1.1//EN" "http://www.w3.org/Graphics/SVG/1.1/DTD/svg11.dtd">
<svg version="1.1" id="Layer_1" xmlns="http://www.w3.org/2000/svg" xmlns:xlink="http://www.w3.org/1999/xlink" x="0px" y="0px"
	 width="415.479px" height="253.795px" viewBox="0 0 415.479 253.795" enable-background="new 0 0 415.479 253.795"
	 xml:space="preserve">
<g>
	<path fill="#FFFFFF" d="M302.699,88.694l18.556-53.391c1.614,0.096,3.266-0.017,4.921-0.39c9.507-2.143,15.492-11.62,13.351-21.127
		c-2.144-9.505-11.616-15.495-21.122-13.353s-15.498,11.621-13.356,21.124c1.005,4.461,3.642,8.134,7.122,10.57L293.783,85.04
		C296.831,86.03,299.81,87.254,302.699,88.694z M319.796,6.605c6.104-1.375,12.188,2.471,13.562,8.573
		c1.376,6.104-2.471,12.189-8.572,13.564c-6.104,1.376-12.188-2.471-13.563-8.576C309.844,14.065,313.691,7.981,319.796,6.605z"/>
	<path fill="#FFFFFF" d="M202.517,84.484c1.11-0.032,2.236-0.163,3.363-0.417c1.588-0.358,3.066-0.937,4.433-1.666l16.755,18.714
		c2.245-2.309,4.641-4.454,7.194-6.393l-17.021-19.015c2.176-3.726,3.017-8.239,1.996-12.768
		c-2.144-9.505-11.622-15.494-21.127-13.352c-9.506,2.144-15.497,11.617-13.355,21.123c1.129,5.009,4.301,9.023,8.435,11.407
		l-20.542,89.586c-1.645-0.107-3.327,0.004-5.02,0.385c-1.627,0.367-3.141,0.961-4.537,1.722l-49.244-56.424
		c1.688-3.48,2.27-7.529,1.354-11.585c-2.142-9.506-11.617-15.498-21.125-13.355c-9.505,2.143-15.497,11.621-13.354,21.126
		c0.405,1.799,1.077,3.474,1.962,4.991l-56.308,55.564c-3.691-2.096-8.131-2.898-12.59-1.894
		c-9.506,2.144-15.494,11.62-13.352,21.125c2.144,9.507,11.619,15.494,21.122,13.353c9.507-2.143,15.499-11.615,13.355-21.123
		c-0.374-1.658-0.983-3.202-1.766-4.625l56.473-55.729c3.614,1.945,7.917,2.662,12.229,1.69c2.026-0.457,3.875-1.264,5.534-2.313
		l48.826,55.939c-2.127,3.702-2.945,8.172-1.934,12.661c2.143,9.505,11.621,15.498,21.125,13.355
		c9.506-2.142,15.498-11.622,13.354-21.127c-0.992-4.402-3.567-8.036-6.983-10.477L202.517,84.484z M199.5,55.757
		c6.104-1.376,12.188,2.471,13.562,8.572c1.376,6.104-2.476,12.187-8.574,13.562c-6.104,1.375-12.188-2.472-13.562-8.572
		C189.55,63.218,193.396,57.132,199.5,55.757z M20.167,200.543c-6.103,1.375-12.187-2.472-13.562-8.573
		c-1.375-6.104,2.473-12.185,8.573-13.56c6.105-1.377,12.189,2.469,13.564,8.57C30.114,193.084,26.268,199.168,20.167,200.543z
		 M100.454,120.756c-6.105,1.376-12.188-2.472-13.562-8.573c-1.375-6.105,2.472-12.189,8.573-13.564s12.188,2.471,13.562,8.576
		C110.405,113.291,106.556,119.381,100.454,120.756z M174.007,200.399c-6.102,1.375-12.187-2.473-13.562-8.577
		c-1.375-6.104,2.472-12.188,8.574-13.562c6.104-1.376,12.188,2.47,13.563,8.573C183.958,192.937,180.112,199.023,174.007,200.399z"
		/>
	<path fill="#FFFFFF" d="M412.199,239.312l-86.718-63.565c14.273-26.14,7.398-59.539-17.273-77.618
		c-26.864-19.693-64.748-13.857-84.439,13.009c-19.69,26.864-13.854,64.75,13.008,84.439c24.675,18.084,58.59,14.586,79.221-6.894
		l86.716,63.562c3.574,2.617,8.594,1.844,11.212-1.727C416.545,246.947,415.773,241.932,412.199,239.312z M308.287,173.086
		c-14.466,19.735-42.289,24.023-62.021,9.56c-19.733-14.468-24.022-42.289-9.556-62.022c14.461-19.736,42.284-24.021,62.02-9.556
		C318.465,125.527,322.75,153.354,308.287,173.086z"/>
	<path fill="#FFFFFF" d="M290.726,123.181l3.602-10.359c-2.787-1.69-5.736-3.04-8.807-3.995l-5.301,15.264
		c-3.074,1.234-5.74,3.277-7.698,5.921c-2.615-1.397-5.544-2.098-8.521-2.074l-12.543-14.011c-2.65,1.809-5.091,3.923-7.242,6.337
		l9.695,10.833c-5.709,3.937-8.779,10.972-7.195,18c3.576,15.865,34.267,29.99,35.55,30.509l1.575,0.63l1.152-1.244
		c0.94-1.02,22.605-26.943,19.031-42.811C302.513,129.471,297.164,124.574,290.726,123.181z M295.822,151.147
		c-2.992,6.978-8.438,14.765-13.789,21.071c-7.534-3.402-15.793-8.102-21.488-13.121c-2.461-2.529-6.211-6.618-7.306-11.473
		c-1.283-5.691,2.483-11.405,8.394-12.737c3.212-0.725,6.542-0.031,9.129,1.901l3.929,2.846l2.334-4.257
		c1.508-2.855,4.214-4.908,7.431-5.634c5.91-1.332,11.764,2.214,13.046,7.906C298.832,143.561,296.96,147.807,295.822,151.147z"/>
</g>
</svg>
