<?xml version="1.0" encoding="utf-8"?>
<!-- Generator: Adobe Illustrator 16.2.1, SVG Export Plug-In . SVG Version: 6.00 Build 0)  -->
<!DOCTYPE svg PUBLIC "-//W3C//DTD SVG 1.1//EN" "http://www.w3.org/Graphics/SVG/1.1/DTD/svg11.dtd">
<svg version="1.1" id="Layer_1" xmlns="http://www.w3.org/2000/svg" xmlns:xlink="http://www.w3.org/1999/xlink" x="0px" y="0px"
	 width="610.104px" height="414.406px" viewBox="0 0 610.104 414.406" enable-background="new 0 0 610.104 414.406"
	 xml:space="preserve">
<g>
	<path fill="#FFFFFF" d="M393.503,156.502l14.733,26.439l15.544-2.719l-17.183-30.827
		C401.979,151.225,397.575,153.588,393.503,156.502z"/>
	<path fill="#FFFFFF" d="M442.355,181.336l16.996,0.876l12.369-19.892c-3.634-3.501-7.63-6.543-11.942-9.031L442.355,181.336z"/>
	<path fill="#FFFFFF" d="M492.996,128.08l46.199-74.319c2.404,0.694,4.936,1.087,7.563,1.087c15.086,0,27.354-12.276,27.354-27.364
		c0-15.085-12.268-27.356-27.354-27.356c-15.085,0-27.364,12.276-27.364,27.356c0,7.081,2.73,13.524,7.16,18.39l-45.781,73.653
		C485.04,122.06,489.122,124.923,492.996,128.08z M546.759,9.92c9.686,0,17.565,7.88,17.565,17.563c0,9.688-7.88,17.57-17.565,17.57
		c-9.687,0-17.565-7.882-17.565-17.57C529.188,17.8,537.072,9.92,546.759,9.92z"/>
	<path fill="#FFFFFF" d="M342.704,88.271c1.688,0.33,3.435,0.515,5.221,0.515c2.521,0,4.95-0.369,7.263-1.007l18.934,33.967
		c4.178-2.723,8.526-5.146,13.043-7.206L367.93,80.029c4.553-4.886,7.359-11.418,7.359-18.604c0-15.085-12.278-27.356-27.364-27.356
		s-27.358,12.271-27.358,27.356c0,7.948,3.424,15.093,8.854,20.099l-61.519,128.309c-2.445-0.722-5.027-1.125-7.712-1.125
		c-2.582,0-5.07,0.38-7.438,1.054l-55.166-101.979c3.735-4.682,5.989-10.599,5.989-17.037c0-15.085-12.271-27.361-27.359-27.361
		c-15.085,0-27.361,12.276-27.361,27.361c0,2.855,0.444,5.614,1.266,8.206L46.163,163.705c-4.861-4.421-11.293-7.145-18.369-7.145
		c-15.088,0-27.356,12.276-27.356,27.361c0,15.088,12.273,27.356,27.356,27.356c15.088,0,27.361-12.268,27.361-27.356
		c0-2.632-0.396-5.171-1.092-7.585l104.26-64.947c4.797,4.169,11.051,6.716,17.897,6.716c3.215,0,6.282-0.587,9.145-1.61
		l54.7,101.106c-4.473,4.869-7.229,11.339-7.229,18.464c0,15.085,12.276,27.364,27.358,27.364c15.085,0,27.362-12.279,27.362-27.364
		c0-6.986-2.654-13.35-6.981-18.199L342.704,88.271z M347.925,43.857c9.687,0,17.565,7.88,17.565,17.563
		c0,9.688-7.884,17.563-17.565,17.563c-9.686,0-17.565-7.88-17.565-17.563C330.359,51.737,338.239,43.857,347.925,43.857z
		 M27.793,201.485c-9.683,0-17.563-7.879-17.563-17.563c0-9.688,7.88-17.562,17.563-17.562c9.689,0,17.568,7.879,17.568,17.562
		C45.356,193.605,37.477,201.485,27.793,201.485z M176.21,108.312c-9.689,0-17.563-7.882-17.563-17.565
		c0-9.688,7.88-17.568,17.563-17.568c9.683,0,17.565,7.879,17.565,17.568C193.78,100.424,185.893,108.312,176.21,108.312z
		 M260.189,253.635c-9.683,0-17.565-7.884-17.565-17.57c0-9.687,7.882-17.566,17.565-17.566c9.689,0,17.569,7.879,17.569,17.566
		C277.758,245.751,269.878,253.635,260.189,253.635z"/>
	<path fill="#FFFFFF" d="M606.688,393.48L497.354,267.96c30.456-34.62,31.441-87.404,0.331-123.106
		c-33.87-38.89-93.073-42.97-131.96-9.097c-38.883,33.873-42.965,93.076-9.095,131.958c31.11,35.714,83.521,41.975,121.994,16.555
		l109.332,125.515c4.507,5.17,12.351,5.711,17.521,1.21C610.652,406.493,611.193,398.655,606.688,393.48z M472.292,258.09
		c-28.568,24.884-72.048,21.889-96.927-6.674c-24.879-28.569-21.889-72.046,6.681-96.925c28.558-24.886,72.037-21.885,96.921,6.678
		C503.851,189.728,500.85,233.212,472.292,258.09z"/>
</g>
<g>
</g>
<g>
	<path fill="#FFFFFF" d="M451.048,174.163c-6.735,0-13.14,2.408-18.112,6.696c-4.965-4.288-11.37-6.696-18.105-6.696
		c-15.092,0-27.366,11.999-27.366,26.736c0,25.179,41.545,56.959,43.308,58.179l2.164,1.487l2.163-1.487
		c1.771-1.219,43.315-33,43.315-58.179C478.414,186.162,466.14,174.163,451.048,174.163z M460.931,220.712
		c-6.893,9.521-17.767,19.427-27.995,27.13c-10.222-7.703-21.096-17.609-27.988-27.13c-2.856-4.658-7.129-12.11-7.129-19.813
		c0-9.033,7.633-16.382,17.012-16.382c5.099,0,9.891,2.18,13.141,5.98l4.965,5.634l4.973-5.634c3.249-3.8,8.033-5.98,13.14-5.98
		c9.38,0,17.012,7.349,17.012,16.382C468.06,210.279,463.787,216.054,460.931,220.712z"/>
</g>
<g>
</g>
<g>
</g>
<g>
</g>
<g>
</g>
<g>
</g>
<g>
</g>
</svg>
