<?xml version="1.0" encoding="utf-8"?>
<!-- Generator: Adobe Illustrator 16.2.1, SVG Export Plug-In . SVG Version: 6.00 Build 0)  -->
<!DOCTYPE svg PUBLIC "-//W3C//DTD SVG 1.0//EN" "http://www.w3.org/TR/2001/REC-SVG-20010904/DTD/svg10.dtd">
<svg version="1.0" id="Layer_1" xmlns="http://www.w3.org/2000/svg" xmlns:xlink="http://www.w3.org/1999/xlink" x="0px" y="0px"
	 width="4000px" height="400px" viewBox="0 0 4000 400" enable-background="new 0 0 4000 400" xml:space="preserve">
<path fill="#FFFFFF" d="M-28.872,159.539c-25.414,17.176-32.116,51.824-14.94,77.238c17.176,25.416,51.825,32.117,77.239,14.94
	c25.413-17.176,32.115-51.823,14.938-77.238C31.189,149.066-3.459,142.363-28.872,159.539z M22.65,235.773
	c-16.622,11.231-39.283,6.849-50.517-9.772c-11.233-16.62-6.851-39.282,9.771-50.517c16.621-11.232,39.283-6.848,50.516,9.773
	C43.652,201.878,39.27,224.54,22.65,235.773z"/>
<path fill="#FFFFFF" d="M3968.852,159.539c-25.414,17.176-32.115,51.824-14.939,77.238c17.176,25.416,51.825,32.117,77.239,14.94
	c25.413-17.176,32.114-51.823,14.938-77.238C4028.913,149.066,3994.265,142.363,3968.852,159.539z M4020.374,235.773
	c-16.622,11.231-39.283,6.849-50.517-9.772c-11.233-16.62-6.852-39.282,9.771-50.517c16.621-11.232,39.283-6.848,50.517,9.773
	C4041.376,201.878,4036.993,224.54,4020.374,235.773z"/>
<rect x="22.918" y="135.349" transform="matrix(-0.8285 0.56 -0.56 -0.8285 247.9301 215.4228)" fill="#FFFFFF" width="136.119" height="20.656"/>
<rect x="33.129" y="244.88" transform="matrix(-0.9243 -0.3817 0.3817 -0.9243 128.9758 535.9989)" fill="#FFFFFF" width="169.036" height="20.656"/>
<rect x="506.509" y="217.091" transform="matrix(-0.8605 0.5095 -0.5095 -0.8605 1184.8276 130.3438)" fill="#FFFFFF" width="136.111" height="20.656"/>
<rect x="277.377" y="293.026" transform="matrix(-0.9973 0.074 -0.074 -0.9973 744.549 579.1248)" fill="#FFFFFF" width="168.338" height="20.658"/>
<rect x="1155.294" y="217.119" transform="matrix(-0.8605 0.5095 -0.5095 -0.8605 2428.0723 -210.0957)" fill="#FFFFFF" width="175.025" height="20.655"/>
<rect x="1598.712" y="316.057" transform="matrix(-0.1815 0.9834 -0.9834 -0.1815 2294.8159 -1257.2627)" fill="#FFFFFF" width="143.843" height="20.655"/>
<rect x="2041.234" y="225.314" transform="matrix(-0.5454 0.8382 -0.8382 -0.5454 3543.2158 -1450.479)" fill="#FFFFFF" width="247.455" height="20.655"/>
<rect x="2041.234" y="225.314" transform="matrix(-0.5454 0.8382 -0.8382 -0.5454 3543.2158 -1450.479)" fill="#FFFFFF" width="247.455" height="20.655"/>
<rect x="1375.288" y="92.488" transform="matrix(-0.6686 0.7436 -0.7436 -0.6686 2449.8794 -886.1578)" fill="#FFFFFF" width="94.218" height="20.654"/>
<rect x="1026.384" y="347.77" transform="matrix(-0.6686 0.7436 -0.7436 -0.6686 2057.5244 -200.7443)" fill="#FFFFFF" width="94.219" height="20.654"/>
<rect x="1716.165" y="139.715" transform="matrix(-0.9028 0.4301 -0.4301 -0.9028 3569.1599 -506.6681)" fill="#FFFFFF" width="251.355" height="20.656"/>
<rect x="2101.834" y="313.151" transform="matrix(-0.9644 0.2643 -0.2643 -0.9644 4508.7266 40.3187)" fill="#FFFFFF" width="299.634" height="20.655"/>
<rect x="1212.107" y="112.663" transform="matrix(0.8429 0.538 -0.538 0.8429 264.9318 -661.5099)" fill="#FFFFFF" width="106.635" height="20.654"/>
<rect x="1346.62" y="239.441" transform="matrix(0.5659 0.8245 -0.8245 0.5659 813.5856 -1045.7622)" fill="#FFFFFF" width="106.634" height="20.654"/>
<rect x="1720.818" y="281.444" transform="matrix(0.9302 0.367 -0.367 0.9302 238.1548 -668.9908)" fill="#FFFFFF" width="314.962" height="20.655"/>
<rect x="1397.09" y="178.016" transform="matrix(0.9901 0.1401 -0.1401 0.9901 41.4015 -211.4044)" fill="#FFFFFF" width="250.125" height="20.654"/>
<rect x="896.889" y="182.08" transform="matrix(-0.7697 -0.6385 0.6385 -0.7697 1669.6599 987.2024)" fill="#FFFFFF" width="232.048" height="20.658"/>
<rect x="703.62" y="119.847" transform="matrix(-0.9424 0.3345 -0.3345 -0.9424 1562.6084 -8.7443)" fill="#FFFFFF" width="156.874" height="20.656"/>
<rect x="934.364" y="77.064" transform="matrix(-0.9971 0.0759 -0.0759 -0.9971 2077.3433 95.8338)" fill="#FFFFFF" width="204.974" height="20.655"/>
<rect x="684.004" y="232.343" transform="matrix(-0.8104 -0.5859 0.5859 -0.8104 1238.1367 886.0389)" fill="#FFFFFF" width="156.877" height="20.656"/>
<rect x="168.618" y="377.904" transform="matrix(0.2955 -0.9553 0.9553 0.2955 -222.5884 474.6165)" fill="#FFFFFF" width="83.792" height="20.655"/>
<rect x="429.756" y="195.288" transform="matrix(-0.1471 -0.9891 0.9891 -0.1471 337.655 702.384)" fill="#FFFFFF" width="83.793" height="20.655"/>
<rect x="452.475" y="30.459" transform="matrix(0.587 -0.8096 0.8096 0.587 181.3804 437.124)" fill="#FFFFFF" width="133.299" height="20.656"/>
<rect x="810.631" y="199.673" transform="matrix(-0.1366 0.9906 -0.9906 -0.1366 1207.0999 -632.0738)" fill="#FFFFFF" width="136.736" height="20.655"/>
<rect x="884.055" y="358.482" transform="matrix(0.8741 0.4858 -0.4858 0.8741 297.0308 -408.2812)" fill="#FFFFFF" width="104.01" height="20.655"/>
<rect x="1483.007" y="373.532" transform="matrix(0.8741 0.4858 -0.4858 0.8741 381.6846 -704.7485)" fill="#FFFFFF" width="134.459" height="20.655"/>
<rect x="2032.529" y="77.634" transform="matrix(0.9963 0.0859 -0.0859 0.9963 15.4175 -182.3771)" fill="#FFFFFF" width="188.811" height="20.654"/>
<rect x="2261.786" y="170.156" transform="matrix(0.7409 0.6717 -0.6717 0.7409 728.0886 -1526.1509)" fill="#FFFFFF" width="160.115" height="20.655"/>
<rect x="2452.702" y="156.576" transform="matrix(0.8748 -0.4846 0.4846 0.8748 243.4082 1275.5281)" fill="#FFFFFF" width="272.894" height="20.654"/>
<rect x="2782.07" y="97.093" transform="matrix(0.9896 0.1441 -0.1441 0.9896 46.0266 -420.6604)" fill="#FFFFFF" width="290.064" height="20.656"/>
<rect x="2805.703" y="270.624" transform="matrix(0.5772 -0.8166 0.8166 0.5772 984.8734 2464.1077)" fill="#FFFFFF" width="132.697" height="20.654"/>
<rect x="2946.564" y="270.569" transform="matrix(-0.6814 -0.7319 0.7319 -0.6814 4860.3389 2677.4692)" fill="#FFFFFF" width="132.696" height="20.655"/>
<rect x="3865.769" y="234.33" transform="matrix(-0.9061 0.4231 -0.4231 -0.9061 7568.3438 -1190.6411)" fill="#FFFFFF" width="101.094" height="20.655"/>
<rect x="3368.602" y="343.189" transform="matrix(-0.8014 -0.5982 0.5982 -0.8014 5998.7188 2699.0044)" fill="#FFFFFF" width="157.764" height="20.653"/>
<polygon fill="#FFFFFF" points="3798.823,313.22 3587.097,412.345 3578.341,393.64 3790.056,294.518 "/>
<rect x="3724.734" y="131.32" transform="matrix(-0.0319 -0.9995 0.9995 -0.0319 3805.656 3969.4241)" fill="#FFFFFF" width="200.941" height="20.656"/>
<rect x="3132.284" y="198.925" transform="matrix(-0.855 -0.5186 0.5186 -0.855 5883.7617 2063.4268)" fill="#FFFFFF" width="196.066" height="20.655"/>
<rect x="3118.008" y="316.243" transform="matrix(-0.9569 0.2904 -0.2904 -0.9569 6393.4199 -295.634)" fill="#FFFFFF" width="201.277" height="20.655"/>
<rect x="3030.434" y="234.109" transform="matrix(0.1416 -0.9899 0.9899 0.1416 2418.5046 3277.9387)" fill="#FFFFFF" width="137.816" height="20.655"/>
<rect x="3382.304" y="147.977" transform="matrix(-0.6295 -0.777 0.777 -0.6295 5500.7559 2939.5479)" fill="#FFFFFF" width="137.82" height="20.655"/>
<rect x="3826.745" y="83.754" transform="matrix(-0.7034 -0.7108 0.7108 -0.7034 6611.4365 2947.009)" fill="#FFFFFF" width="187.686" height="20.656"/>
<rect x="3526.83" y="113.616" transform="matrix(-0.7754 0.6315 -0.6315 -0.7754 6605.3955 -2101.5957)" fill="#FFFFFF" width="299.257" height="20.657"/>
<rect x="3148.863" y="89.154" transform="matrix(-0.9712 0.2382 -0.2382 -0.9712 6422.0508 -577.0815)" fill="#FFFFFF" width="194.06" height="20.656"/>
<rect x="2461.436" y="302.748" transform="matrix(0.9586 0.2848 -0.2848 0.9586 197.543 -732.3829)" fill="#FFFFFF" width="311.379" height="20.653"/>
<rect x="1918.88" y="212.096" transform="matrix(0.2475 0.9689 -0.9689 0.2475 1744.6058 -1801.4346)" fill="#FFFFFF" width="226.298" height="20.654"/>
<rect x="1175.408" y="316.127" transform="matrix(-0.9948 -0.1014 0.1014 -0.9948 2554.6077 782.7551)" fill="#FFFFFF" width="243.577" height="20.654"/>
<rect x="509.221" y="324.19" transform="matrix(0.8741 0.4858 -0.4858 0.8741 233.1755 -230.5128)" fill="#FFFFFF" width="104.009" height="20.654"/>
<rect x="683.536" y="348.792" transform="matrix(0.9685 -0.2491 0.2491 0.9685 -65.6886 199.147)" fill="#FFFFFF" width="140.964" height="20.656"/>
<path fill="#FFFFFF" d="M216.254,39.491c-25.388-17.214-60.047-10.564-77.262,14.825c-17.214,25.389-10.563,60.048,14.825,77.262
	c25.388,17.213,60.045,10.563,77.26-14.827C248.292,91.362,241.643,56.704,216.254,39.491z M164.618,115.648
	c-16.604-11.259-20.953-33.927-9.695-50.531c11.257-16.604,33.925-20.955,50.531-9.697c16.604,11.258,20.952,33.928,9.694,50.531
	C203.891,122.554,181.222,126.904,164.618,115.648z"/>
<path fill="#FFFFFF" d="M266.254,258.49c-25.388-17.213-60.047-10.563-77.262,14.824c-17.214,25.39-10.563,60.049,14.825,77.263
	c25.388,17.213,60.045,10.562,77.26-14.827C298.292,310.362,291.643,275.703,266.254,258.49z M214.618,334.648
	c-16.604-11.261-20.953-33.928-9.695-50.531c11.257-16.605,33.925-20.955,50.531-9.697c16.604,11.258,20.952,33.928,9.694,50.531
	C253.891,341.554,231.222,345.904,214.618,334.648z"/>
<path fill="#FFFFFF" d="M702.254,122.437c-25.388-17.214-60.047-10.564-77.262,14.825c-17.214,25.389-10.563,60.048,14.824,77.261
	c25.389,17.213,60.046,10.563,77.261-14.827C734.292,174.309,727.643,139.649,702.254,122.437z M650.618,198.595
	c-16.604-11.26-20.953-33.928-9.695-50.531c11.257-16.605,33.925-20.955,50.531-9.697c16.604,11.258,20.952,33.928,9.694,50.531
	C689.891,205.5,667.222,209.852,650.618,198.595z"/>
<path fill="#FFFFFF" d="M926.254,48.364C900.866,31.15,866.208,37.8,848.993,63.188c-17.214,25.389-10.563,60.048,14.825,77.262
	c25.388,17.213,60.045,10.563,77.26-14.827C958.292,100.235,951.643,65.576,926.254,48.364z M874.618,124.521
	c-16.604-11.26-20.953-33.928-9.695-50.531c11.257-16.605,33.925-20.955,50.531-9.697c16.604,11.258,20.952,33.928,9.694,50.531
	C913.891,131.427,891.222,135.777,874.618,124.521z"/>
<path fill="#FFFFFF" d="M1389.73,120.072c-25.388-17.214-60.047-10.564-77.262,14.825c-17.214,25.389-10.562,60.048,14.825,77.261
	c25.388,17.213,60.045,10.564,77.26-14.827C1421.768,171.944,1415.119,137.285,1389.73,120.072z M1338.095,196.23
	c-16.604-11.26-20.952-33.928-9.694-50.531c11.257-16.605,33.925-20.955,50.531-9.697c16.604,11.258,20.951,33.928,9.693,50.531
	C1377.367,203.135,1354.699,207.486,1338.095,196.23z"/>
<path fill="#FFFFFF" d="M1722.436,170.056c-25.388-17.214-60.047-10.564-77.262,14.825c-17.214,25.389-10.562,60.047,14.825,77.262
	c25.388,17.213,60.045,10.563,77.26-14.828C1754.473,221.928,1747.824,187.268,1722.436,170.056z M1670.799,246.213
	c-16.604-11.26-20.953-33.928-9.695-50.531c11.258-16.605,33.926-20.955,50.531-9.697c16.604,11.258,20.952,33.928,9.694,50.531
	C1710.072,253.118,1687.402,257.471,1670.799,246.213z"/>
<path fill="#FFFFFF" d="M1678.593,392.873c-25.388-17.214-60.047-10.564-77.262,14.825c-17.214,25.389-10.563,60.047,14.825,77.261
	c25.388,17.213,60.045,10.564,77.26-14.827C1710.63,444.745,1703.98,410.085,1678.593,392.873z M1626.957,469.03
	c-16.604-11.261-20.953-33.929-9.695-50.531c11.258-16.604,33.926-20.954,50.531-9.697c16.604,11.258,20.952,33.929,9.694,50.531
	C1666.229,475.936,1643.561,480.287,1626.957,469.03z"/>
<path fill="#FFFFFF" d="M1165.254,247.584c-25.388-17.213-60.047-10.562-77.262,14.825c-17.214,25.389-10.562,60.048,14.824,77.262
	c25.389,17.213,60.046,10.563,77.261-14.827C1197.292,299.456,1190.643,264.797,1165.254,247.584z M1113.618,323.742
	c-16.604-11.26-20.953-33.928-9.695-50.531c11.257-16.605,33.925-20.955,50.531-9.697c16.604,11.258,20.952,33.928,9.694,50.531
	C1152.891,330.647,1130.223,334.998,1113.618,323.742z"/>
<path fill="#FFFFFF" d="M1044.104,370.577c-25.389-17.213-60.047-10.563-77.263,14.825c-17.214,25.389-10.562,60.048,14.825,77.262
	c25.388,17.213,60.045,10.562,77.26-14.827C1076.141,422.449,1069.491,387.79,1044.104,370.577z M992.467,446.735
	c-16.604-11.261-20.953-33.929-9.695-50.531c11.258-16.605,33.926-20.955,50.531-9.697c16.604,11.258,20.952,33.928,9.694,50.531
	C1031.739,453.641,1009.071,457.991,992.467,446.735z"/>
<path fill="#FFFFFF" d="M678.122,330.419c-25.388-17.213-60.047-10.562-77.263,14.825c-17.213,25.389-10.562,60.048,14.826,77.262
	c25.388,17.213,60.045,10.563,77.26-14.827C710.159,382.291,703.51,347.632,678.122,330.419z M626.484,406.577
	c-16.604-11.26-20.952-33.928-9.694-50.531c11.257-16.604,33.925-20.955,50.531-9.697c16.604,11.259,20.952,33.929,9.694,50.531
	S643.089,417.833,626.484,406.577z"/>
<path fill="#FFFFFF" d="M2100.749,322.771c-25.388-17.213-60.047-10.563-77.262,14.824c-17.214,25.39-10.562,60.048,14.825,77.263
	c25.389,17.213,60.046,10.562,77.261-14.827C2132.786,374.644,2126.138,339.984,2100.749,322.771z M2049.113,398.93
	c-16.604-11.26-20.953-33.928-9.694-50.53c11.256-16.605,33.925-20.955,50.53-9.697c16.604,11.258,20.951,33.928,9.693,50.531
	C2088.386,405.835,2065.718,410.186,2049.113,398.93z"/>
<path fill="#FFFFFF" d="M890.639,274.809c-25.388-17.213-60.047-10.563-77.262,14.824c-17.214,25.39-10.562,60.048,14.825,77.262
	s60.045,10.563,77.26-14.826C922.676,326.68,916.027,292.021,890.639,274.809z M839.003,350.966
	c-16.604-11.26-20.953-33.928-9.694-50.53c11.256-16.605,33.924-20.955,50.53-9.697c16.604,11.258,20.952,33.928,9.694,50.53
	S855.607,362.222,839.003,350.966z"/>
<path fill="#FFFFFF" d="M1517.737-16.121c-25.388-17.213-60.048-10.563-77.263,14.825c-17.213,25.389-10.562,60.048,14.825,77.262
	c25.388,17.213,60.046,10.563,77.261-14.827C1549.773,35.751,1543.125,1.092,1517.737-16.121z M1466.102,60.037
	c-16.604-11.26-20.953-33.928-9.695-50.531c11.257-16.605,33.925-20.955,50.531-9.697c16.604,11.258,20.951,33.928,9.693,50.531
	C1505.373,66.942,1482.705,71.293,1466.102,60.037z"/>
<path fill="#FFFFFF" d="M2463.934,209.162c-25.388-17.213-60.047-10.563-77.262,14.824c-17.214,25.39-10.562,60.049,14.826,77.263
	c25.388,17.213,60.045,10.562,77.26-14.827C2495.971,261.034,2489.322,226.375,2463.934,209.162z M2412.298,285.32
	c-16.604-11.26-20.952-33.928-9.694-50.531c11.257-16.605,33.926-20.955,50.53-9.697s20.952,33.928,9.694,50.531
	S2428.902,296.576,2412.298,285.32z"/>
<path fill="#FFFFFF" d="M2778.105,35.597c-25.389-17.213-60.048-10.563-77.263,14.825c-17.214,25.389-10.562,60.048,14.826,77.262
	c25.388,17.213,60.045,10.563,77.26-14.827C2810.143,87.469,2803.494,52.81,2778.105,35.597z M2726.47,111.755
	c-16.604-11.26-20.952-33.928-9.694-50.531c11.257-16.605,33.926-20.955,50.53-9.697c16.604,11.258,20.952,33.928,9.694,50.531
	C2765.742,118.66,2743.074,123.011,2726.47,111.755z"/>
<path fill="#FFFFFF" d="M2833.717,322.771c-25.388-17.213-60.047-10.563-77.262,14.824c-17.214,25.39-10.562,60.048,14.826,77.263
	c25.388,17.213,60.045,10.562,77.26-14.827C2865.754,374.644,2859.105,339.984,2833.717,322.771z M2782.081,398.93
	c-16.604-11.26-20.953-33.928-9.694-50.53c11.256-16.605,33.926-20.955,50.53-9.697s20.952,33.928,9.694,50.531
	C2821.354,405.835,2798.686,410.186,2782.081,398.93z"/>
<path fill="#FFFFFF" d="M2967.327,153.957c-25.388-17.213-60.048-10.563-77.263,14.825c-17.214,25.389-10.562,60.048,14.826,77.262
	c25.389,17.213,60.045,10.563,77.26-14.827C2999.364,205.829,2992.716,171.17,2967.327,153.957z M2915.691,230.115
	c-16.604-11.26-20.953-33.928-9.694-50.531c11.256-16.605,33.925-20.955,50.53-9.697c16.604,11.258,20.951,33.927,9.693,50.531
	C2954.964,237.021,2932.296,241.371,2915.691,230.115z"/>
<path fill="#FFFFFF" d="M3142.636,91.208c-25.388-17.213-60.047-10.563-77.262,14.825c-17.214,25.389-10.562,60.048,14.826,77.262
	c25.388,17.213,60.045,10.563,77.26-14.827C3174.673,143.08,3168.023,108.421,3142.636,91.208z M3091,167.366
	c-16.604-11.26-20.953-33.928-9.694-50.531c11.257-16.605,33.925-20.955,50.53-9.697c16.604,11.258,20.952,33.928,9.694,50.531
	C3130.271,174.271,3107.604,178.622,3091,167.366z"/>
<path fill="#FFFFFF" d="M3414.636,23.423c-25.388-17.213-60.047-10.563-77.262,14.825c-17.214,25.389-10.562,60.048,14.826,77.262
	c25.388,17.213,60.045,10.563,77.26-14.827C3446.673,75.295,3440.023,40.636,3414.636,23.423z M3363,99.582
	c-16.604-11.26-20.953-33.928-9.694-50.531c11.257-16.605,33.925-20.955,50.53-9.697c16.604,11.258,20.952,33.928,9.694,50.531
	C3402.271,106.487,3379.604,110.837,3363,99.582z"/>
<path fill="#FFFFFF" d="M3385.777,234.843c-25.389-17.213-60.047-10.563-77.262,14.825s-10.562,60.048,14.825,77.262
	c25.388,17.213,60.045,10.563,77.261-14.827C3417.814,286.715,3411.166,252.057,3385.777,234.843z M3334.143,311.001
	c-16.604-11.26-20.953-33.928-9.694-50.53c11.256-16.605,33.925-20.955,50.53-9.697c16.604,11.258,20.951,33.928,9.693,50.531
	C3373.414,317.906,3350.746,322.257,3334.143,311.001z"/>
<path fill="#FFFFFF" d="M3116.777,314.843c-25.389-17.213-60.047-10.563-77.262,14.825s-10.562,60.048,14.825,77.262
	c25.388,17.213,60.045,10.563,77.261-14.827C3148.814,366.715,3142.166,332.056,3116.777,314.843z M3065.143,391.001
	c-16.604-11.26-20.953-33.928-9.694-50.531c11.256-16.604,33.925-20.955,50.53-9.696c16.604,11.258,20.951,33.928,9.693,50.53
	S3081.746,402.257,3065.143,391.001z"/>
<path fill="#FFFFFF" d="M3553.948,191.974c-25.388-17.213-60.048-10.563-77.263,14.825c-17.214,25.389-10.562,60.049,14.826,77.262
	c25.389,17.213,60.045,10.563,77.26-14.826C3585.985,243.846,3579.337,209.188,3553.948,191.974z M3502.312,268.132
	c-16.604-11.26-20.953-33.928-9.694-50.53c11.256-16.605,33.925-20.956,50.53-9.697c16.604,11.258,20.951,33.928,9.693,50.531
	C3541.585,275.037,3518.917,279.389,3502.312,268.132z"/>
<path fill="#FFFFFF" d="M3862.344,241.372c-25.388-17.213-60.047-10.562-77.262,14.826c-17.214,25.389-10.562,60.047,14.826,77.262
	c25.388,17.213,60.045,10.562,77.26-14.828C3894.381,293.245,3887.732,258.585,3862.344,241.372z M3810.708,317.53
	c-16.604-11.261-20.953-33.929-9.694-50.531c11.256-16.604,33.926-20.955,50.53-9.697c16.604,11.259,20.952,33.929,9.694,50.531
	S3827.312,328.786,3810.708,317.53z"/>
<path fill="#FFFFFF" d="M3855.229-46.043c-25.388-17.213-60.047-10.563-77.262,14.825c-17.214,25.389-10.562,60.048,14.826,77.262
	c25.388,17.213,60.045,10.563,77.26-14.827C3887.268,5.829,3880.618-28.831,3855.229-46.043z M3803.594,30.115
	c-16.604-11.26-20.953-33.928-9.693-50.531c11.256-16.605,33.925-20.955,50.529-9.697c16.604,11.258,20.952,33.928,9.694,50.531
	C3842.866,37.02,3820.198,41.371,3803.594,30.115z"/>
<path fill="#FFFFFF" d="M3578.338,378.383c-25.388-17.213-60.047-10.562-77.262,14.825c-17.215,25.389-10.562,60.048,14.826,77.262
	c25.388,17.213,60.045,10.563,77.26-14.827C3610.375,430.255,3603.727,395.596,3578.338,378.383z M3526.702,454.541
	c-16.604-11.26-20.953-33.928-9.694-50.531c11.256-16.604,33.925-20.955,50.53-9.697c16.604,11.259,20.952,33.929,9.694,50.531
	S3543.307,465.797,3526.702,454.541z"/>
<path fill="#FFFFFF" d="M1486.398,281.65c-25.389-17.213-60.047-10.564-77.263,14.824c-17.214,25.389-10.562,60.049,14.825,77.262
	s60.045,10.563,77.26-14.826C1518.436,333.521,1511.786,298.863,1486.398,281.65z M1434.762,357.809
	c-16.604-11.26-20.953-33.928-9.695-50.53c11.258-16.605,33.926-20.955,50.531-9.697c16.604,11.258,20.952,33.928,9.694,50.531
	C1474.034,364.713,1451.366,369.064,1434.762,357.809z"/>
<path fill="#FFFFFF" d="M2287.985,48.125c-25.388-17.213-60.048-10.564-77.263,14.824c-17.214,25.389-10.562,60.049,14.825,77.262
	s60.045,10.564,77.261-14.826C2320.021,99.997,2313.373,65.338,2287.985,48.125z M2236.35,124.284
	c-16.604-11.26-20.952-33.928-9.694-50.531c11.257-16.605,33.926-20.955,50.53-9.697c16.604,11.258,20.951,33.928,9.693,50.531
	C2275.621,131.188,2252.953,135.54,2236.35,124.284z"/>
<path fill="#FFFFFF" d="M2022.712,30.488c-25.388-17.213-60.047-10.563-77.262,14.825c-17.214,25.389-10.563,60.048,14.825,77.262
	c25.388,17.213,60.045,10.563,77.26-14.827C2054.749,82.36,2048.1,47.701,2022.712,30.488z M1971.076,106.646
	c-16.604-11.26-20.953-33.928-9.695-50.531c11.258-16.605,33.926-20.955,50.531-9.697c16.604,11.258,20.951,33.928,9.693,50.531
	C2010.348,113.551,1987.68,117.902,1971.076,106.646z"/>
<path fill="#FFFFFF" d="M1211.752,28.488c-25.388-17.213-60.047-10.563-77.262,14.825c-17.215,25.389-10.563,60.048,14.824,77.262
	c25.389,17.213,60.045,10.563,77.261-14.827C1243.79,80.36,1237.141,45.701,1211.752,28.488z M1160.116,104.646
	c-16.604-11.26-20.953-33.928-9.695-50.531c11.257-16.605,33.925-20.955,50.531-9.697c16.604,11.258,20.952,33.928,9.694,50.531
	C1199.389,111.551,1176.72,115.902,1160.116,104.646z"/>
<path fill="#FFFFFF" d="M512.254,243.491c-25.388-17.214-60.047-10.563-77.262,14.825c-17.214,25.389-10.563,60.047,14.825,77.262
	c25.388,17.213,60.045,10.562,77.26-14.827C544.292,295.363,537.643,260.704,512.254,243.491z M460.618,319.648
	c-16.604-11.261-20.953-33.928-9.695-50.531c11.257-16.604,33.925-20.955,50.531-9.697c16.604,11.258,20.952,33.928,9.694,50.531
	S477.222,330.904,460.618,319.648z"/>
<path fill="#FFFFFF" d="M486.5,76.884c-25.388-17.214-60.047-10.563-77.262,14.825c-17.214,25.389-10.563,60.047,14.824,77.262
	c25.389,17.213,60.045,10.562,77.261-14.827C518.537,128.756,511.888,94.097,486.5,76.884z M434.863,153.042
	c-16.604-11.26-20.953-33.927-9.695-50.531c11.257-16.604,33.925-20.955,50.531-9.697c16.604,11.258,20.951,33.928,9.693,50.531
	C474.136,159.948,451.467,164.297,434.863,153.042z"/>
<rect x="193.139" y="175.803" transform="matrix(-0.8277 -0.5612 0.5612 -0.8277 504.8898 527.2899)" fill="#FFFFFF" width="280.516" height="20.656"/>
</svg>
